<svg width="179" height="32" viewBox="0 0 179 32" fill="none" xmlns="http://www.w3.org/2000/svg">
<g id="Frame" clip-path="url(#clip0_54_891)">
<path id="Vector" d="M66.4261 9.13708H61.9281V1.00072C61.9325 0.799132 61.8981 0.652553 61.8292 0.570095C61.756 0.487606 61.6266 0.446375 61.4371 0.45096H60.5839C60.3944 0.446375 60.2567 0.487606 60.1791 0.570095C60.1015 0.652553 60.0628 0.799132 60.0671 1.00072V19.4174C60.0628 19.619 60.1015 19.7656 60.1791 19.8481C60.2567 19.9305 60.3944 19.9718 60.5839 19.9672H61.4371C61.6266 19.9718 61.756 19.9305 61.8292 19.8481C61.8981 19.7656 61.9325 19.619 61.9281 19.4174V11.0062H66.4261V13.4801C66.4304 14.9232 66.6975 16.1556 67.2361 17.1818C67.7743 18.2034 68.5629 18.9868 69.6056 19.5274C70.6439 20.0726 71.919 20.3474 73.4313 20.352C74.9263 20.3474 76.1886 20.0726 77.2226 19.5274C78.2565 18.9868 79.0405 18.2034 79.5747 17.1818C80.1132 16.1556 80.3803 14.9232 80.3847 13.4801V6.93803C80.3803 5.49492 80.1132 4.26258 79.5747 3.2364C79.0405 2.21477 78.2565 1.43135 77.2226 0.886175C76.1886 0.345578 74.9263 0.0707273 73.4313 0.066143C71.919 0.0707273 70.6439 0.345578 69.6056 0.886175C68.5629 1.43135 67.7743 2.21477 67.2361 3.2364C66.6975 4.26258 66.4304 5.49492 66.4261 6.93803V9.13708ZM78.5236 13.4801C78.5236 14.5567 78.3254 15.4638 77.9333 16.2151C77.5412 16.9619 76.9682 17.5299 76.21 17.9194C75.4561 18.3133 74.5298 18.5058 73.4313 18.5103C72.3285 18.5058 71.3934 18.3133 70.6352 17.9194C69.8727 17.5299 69.2954 16.9619 68.9032 16.2151C68.5111 15.4638 68.3132 14.5567 68.3132 13.4801V6.93803C68.3132 5.86148 68.5111 4.94978 68.9032 4.20305C69.2954 3.45628 69.8727 2.88819 70.6352 2.49421C71.3934 2.10481 72.3285 1.90783 73.4313 1.90783C74.5298 1.90783 75.4561 2.10481 76.21 2.49421C76.9682 2.88819 77.5412 3.45628 77.9333 4.20305C78.3254 4.94978 78.5236 5.86148 78.5236 6.93803V13.4801ZM84.3916 0.45096C84.2017 0.446375 84.064 0.487606 83.9864 0.570095C83.9088 0.652553 83.8701 0.799132 83.8744 1.00072V19.4174C83.8701 19.619 83.9088 19.7656 83.9864 19.8481C84.064 19.9305 84.2017 19.9718 84.3916 19.9672H85.2444C85.4339 19.9718 85.5633 19.9305 85.6365 19.8481C85.7054 19.7656 85.7398 19.619 85.7358 19.4174V12.628H91.2931C92.504 12.6234 93.5463 12.3806 94.4168 11.8996C95.287 11.4231 95.9549 10.7314 96.4243 9.82425C96.894 8.92175 97.131 7.83138 97.1353 6.55323C97.131 5.27505 96.894 4.18012 96.4243 3.27301C95.9549 2.36593 95.287 1.66959 94.4168 1.18398C93.5463 0.698366 92.504 0.455544 91.2931 0.45096H84.3916ZM85.7358 10.7863V2.32012H91.138C91.9781 2.3247 92.7019 2.49421 93.3053 2.82862C93.9083 3.16766 94.378 3.65326 94.701 4.28089C95.0286 4.91314 95.1921 5.66905 95.1964 6.55323C95.1921 7.43741 95.0286 8.19332 94.701 8.82554C94.378 9.45314 93.9083 9.93877 93.3053 10.2732C92.7019 10.6122 91.9781 10.7817 91.138 10.7863H85.7358ZM112.49 0.45096C112.374 0.45096 112.27 0.473883 112.18 0.51511C112.089 0.560926 112.012 0.62963 111.947 0.725843L104.502 12.2432C103.895 13.1915 103.352 14.0986 102.865 14.9598C102.383 15.8257 101.956 16.6412 101.581 17.4108H101.504C101.607 16.4625 101.685 15.4959 101.737 14.5063C101.788 13.5213 101.814 12.518 101.814 11.501V1.00072C101.818 0.799132 101.784 0.652553 101.715 0.570095C101.642 0.487606 101.512 0.446375 101.323 0.45096H100.47C100.28 0.446375 100.142 0.487606 100.065 0.570095C99.9872 0.652553 99.9484 0.799132 99.9528 1.00072V19.4174C99.9484 19.619 99.9872 19.7656 100.065 19.8481C100.142 19.9305 100.28 19.9718 100.47 19.9672H101.323C101.439 19.9672 101.543 19.9397 101.633 19.8893C101.724 19.8343 101.801 19.761 101.866 19.6648L109.491 7.87261C110.099 6.88305 110.633 5.98055 111.098 5.16966C111.559 4.35877 111.947 3.63954 112.257 3.00733H112.309C112.192 3.98314 112.111 4.93603 112.055 5.87061C111.999 6.80517 111.973 7.72145 111.973 8.6148V19.4174C111.973 19.619 112.007 19.7656 112.085 19.8481C112.167 19.9305 112.3 19.9718 112.49 19.9672H113.343C113.532 19.9718 113.67 19.9305 113.748 19.8481C113.825 19.7656 113.864 19.619 113.86 19.4174V1.00072C113.864 0.799132 113.825 0.652553 113.748 0.570095C113.67 0.487606 113.532 0.446375 113.343 0.45096H112.49ZM117.35 13.4526C117.354 14.8957 117.629 16.1326 118.181 17.1589C118.733 18.185 119.534 18.973 120.585 19.5228C121.636 20.068 122.92 20.3474 124.432 20.352C125.729 20.352 126.836 20.1733 127.758 19.8114C128.676 19.4541 129.43 18.9181 130.016 18.208C130.606 17.4933 131.054 16.6045 131.36 15.5417C131.412 15.3768 131.412 15.2393 131.36 15.1248C131.308 15.0148 131.205 14.9232 131.05 14.8545L130.248 14.5246C130.093 14.4834 129.96 14.4926 129.843 14.5475C129.731 14.6071 129.641 14.717 129.576 14.8819C129.339 15.7157 129.008 16.3984 128.581 16.9344C128.155 17.4704 127.603 17.869 126.927 18.1255C126.25 18.3821 125.419 18.5103 124.432 18.5103C123.316 18.5058 122.377 18.3042 121.602 17.9102C120.831 17.5116 120.245 16.939 119.844 16.1876C119.439 15.4409 119.241 14.5384 119.237 13.4801V6.93803C119.237 5.87061 119.435 4.96354 119.831 4.21677C120.228 3.47 120.809 2.89736 121.58 2.50337C122.351 2.10939 123.303 1.90783 124.432 1.90783C125.402 1.90324 126.22 2.03152 126.888 2.28348C127.56 2.53543 128.107 2.92484 128.534 3.44714C128.956 3.96938 129.288 4.63825 129.525 5.45369C129.589 5.60489 129.675 5.70569 129.783 5.76068C129.891 5.81563 130.029 5.8248 130.197 5.78357L130.998 5.4812C131.188 5.41708 131.304 5.33 131.347 5.22465C131.39 5.11926 131.377 4.96809 131.308 4.76652C131.002 3.71283 130.554 2.83782 129.968 2.14145C129.382 1.44511 128.633 0.927403 127.719 0.583815C126.806 0.235645 125.712 0.066143 124.432 0.066143C122.903 0.0707273 121.615 0.345578 120.564 0.895341C119.512 1.44511 118.711 2.23308 118.168 3.25929C117.625 4.28548 117.354 5.52243 117.35 6.96551V13.4526ZM133.17 0.45096C132.98 0.446375 132.842 0.487606 132.764 0.570095C132.687 0.652553 132.648 0.799132 132.652 1.00072V1.77039C132.648 1.97195 132.687 2.11397 132.764 2.20101C132.842 2.28347 132.98 2.32012 133.17 2.32012H138.391V19.4174C138.387 19.619 138.425 19.7656 138.503 19.8481C138.58 19.9305 138.719 19.9718 138.908 19.9672H139.761C139.951 19.9718 140.088 19.9305 140.166 19.8481C140.244 19.7656 140.282 19.619 140.278 19.4174V2.32012H145.5C145.689 2.32012 145.827 2.28347 145.905 2.20101C145.982 2.11397 146.021 1.97195 146.017 1.77039V1.00072C146.021 0.799132 145.982 0.652553 145.905 0.570095C145.827 0.487606 145.689 0.446375 145.5 0.45096H133.17ZM147.826 13.4526C147.83 14.8957 148.106 16.1326 148.653 17.1589C149.2 18.185 150.002 18.973 151.057 19.5228C152.113 20.068 153.405 20.3474 154.935 20.352C156.455 20.3474 157.739 20.068 158.795 19.5228C159.846 18.973 160.647 18.185 161.195 17.1589C161.737 16.1326 162.013 14.8957 162.017 13.4526V6.96551C162.013 5.52243 161.737 4.28548 161.195 3.25929C160.647 2.23308 159.846 1.44511 158.795 0.895341C157.739 0.345578 156.455 0.0707273 154.935 0.066143C153.405 0.0707273 152.113 0.345578 151.057 0.895341C150.002 1.44511 149.2 2.23308 148.653 3.25929C148.106 4.28548 147.83 5.52243 147.826 6.96551V13.4526ZM160.156 13.4526C160.156 14.5292 159.954 15.4409 159.557 16.1922C159.157 16.9435 158.571 17.5208 157.796 17.9148C157.02 18.3088 156.064 18.5058 154.935 18.5103C153.806 18.5058 152.85 18.3088 152.07 17.9148C151.29 17.5208 150.7 16.9435 150.295 16.1922C149.89 15.4409 149.687 14.5292 149.687 13.4526V6.96551C149.687 5.88895 149.89 4.97729 150.295 4.22597C150.7 3.47 151.29 2.89736 152.07 2.50337C152.85 2.10939 153.806 1.90783 154.935 1.90783C156.064 1.90783 157.02 2.10939 157.796 2.50337C158.571 2.89736 159.157 3.47 159.557 4.22597C159.954 4.97729 160.156 5.88895 160.156 6.96551V13.4526ZM166.024 0.45096C165.834 0.446375 165.697 0.487606 165.619 0.570095C165.542 0.652553 165.503 0.799132 165.507 1.00072V19.4174C165.503 19.619 165.542 19.7656 165.619 19.8481C165.697 19.9305 165.834 19.9718 166.024 19.9672H173.598C174.697 19.9626 175.649 19.7565 176.446 19.3441C177.243 18.9318 177.859 18.3362 178.29 17.5574C178.725 16.774 178.945 15.8303 178.949 14.717C178.949 13.3976 178.69 12.3394 178.178 11.5377C177.661 10.7405 176.894 10.1953 175.873 9.90674V9.85175C176.687 9.48065 177.294 8.92631 177.7 8.18874C178.1 7.45117 178.303 6.53948 178.303 5.45369C178.298 4.37711 178.104 3.47 177.717 2.72786C177.329 1.9857 176.765 1.41763 176.019 1.03278C175.278 0.647969 174.378 0.45096 173.314 0.45096H166.024ZM176.39 5.70111C176.385 6.84181 176.105 7.69852 175.541 8.27578C174.977 8.84843 174.158 9.13708 173.081 9.13708H167.368V2.32012H173.081C174.18 2.32012 175.007 2.59959 175.558 3.16308C176.114 3.72658 176.39 4.57412 176.39 5.70111ZM176.105 17.191C175.808 17.4933 175.442 17.7224 175.007 17.8735C174.572 18.0247 174.076 18.098 173.521 18.098H167.368V10.9237H173.521C174.076 10.9237 174.572 10.997 175.007 11.1482C175.442 11.2994 175.808 11.5285 176.105 11.8308C176.403 12.147 176.622 12.5272 176.769 12.9716C176.915 13.416 176.984 13.9337 176.984 14.5246C176.984 15.1156 176.915 15.6333 176.769 16.0731C176.622 16.5175 176.403 16.8886 176.105 17.191Z" fill="#140A32"/>
<path id="Vector_2" d="M66.4261 9.13708H61.9281V1.00072C61.9325 0.799132 61.8981 0.652553 61.8292 0.570095C61.756 0.487606 61.6266 0.446375 61.4371 0.45096H60.5839C60.3944 0.446375 60.2567 0.487606 60.1791 0.570095C60.1015 0.652553 60.0628 0.799132 60.0671 1.00072V19.4174C60.0628 19.619 60.1015 19.7656 60.1791 19.8481C60.2567 19.9305 60.3944 19.9718 60.5839 19.9672H61.4371C61.6266 19.9718 61.756 19.9305 61.8292 19.8481C61.8981 19.7656 61.9325 19.619 61.9281 19.4174V11.0062H66.4261V13.4801C66.4304 14.9232 66.6975 16.1556 67.2361 17.1818C67.7743 18.2034 68.5629 18.9868 69.6056 19.5274C70.6439 20.0726 71.919 20.3474 73.4313 20.352C74.9263 20.3474 76.1886 20.0726 77.2226 19.5274C78.2565 18.9868 79.0405 18.2034 79.5747 17.1818C80.1132 16.1556 80.3803 14.9232 80.3847 13.4801V6.93803C80.3803 5.49492 80.1132 4.26258 79.5747 3.2364C79.0405 2.21477 78.2565 1.43135 77.2226 0.886175C76.1886 0.345578 74.9263 0.0707273 73.4313 0.066143C71.919 0.0707273 70.6439 0.345578 69.6056 0.886175C68.5629 1.43135 67.7743 2.21477 67.2361 3.2364C66.6975 4.26258 66.4304 5.49492 66.4261 6.93803V9.13708ZM78.5236 13.4801C78.5236 14.5567 78.3254 15.4638 77.9333 16.2151C77.5412 16.9619 76.9682 17.5299 76.21 17.9194C75.4561 18.3133 74.5298 18.5058 73.4313 18.5103C72.3285 18.5058 71.3934 18.3133 70.6352 17.9194C69.8727 17.5299 69.2954 16.9619 68.9032 16.2151C68.5111 15.4638 68.3132 14.5567 68.3132 13.4801V6.93803C68.3132 5.86148 68.5111 4.94978 68.9032 4.20305C69.2954 3.45628 69.8727 2.88819 70.6352 2.49421C71.3934 2.10481 72.3285 1.90783 73.4313 1.90783C74.5298 1.90783 75.4561 2.10481 76.21 2.49421C76.9682 2.88819 77.5412 3.45628 77.9333 4.20305C78.3254 4.94978 78.5236 5.86148 78.5236 6.93803V13.4801ZM84.3916 0.45096C84.2017 0.446375 84.064 0.487606 83.9864 0.570095C83.9088 0.652553 83.8701 0.799132 83.8744 1.00072V19.4174C83.8701 19.619 83.9088 19.7656 83.9864 19.8481C84.064 19.9305 84.2017 19.9718 84.3916 19.9672H85.2444C85.4339 19.9718 85.5633 19.9305 85.6365 19.8481C85.7054 19.7656 85.7398 19.619 85.7355 19.4174V12.628H91.2931C92.504 12.6234 93.5463 12.3806 94.4168 11.8996C95.287 11.4231 95.9549 10.7314 96.4243 9.82425C96.894 8.92175 97.131 7.83138 97.1353 6.55323C97.131 5.27505 96.894 4.18012 96.4243 3.27301C95.9549 2.36593 95.287 1.66959 94.4168 1.18398C93.5463 0.698366 92.504 0.455544 91.2931 0.45096H84.3916ZM85.7355 10.7863V2.32012H91.138C91.9781 2.3247 92.7019 2.49421 93.3053 2.82862C93.9083 3.16766 94.378 3.65326 94.701 4.28089C95.0286 4.91314 95.1921 5.66905 95.1964 6.55323C95.1921 7.43741 95.0286 8.19332 94.701 8.82554C94.378 9.45314 93.9083 9.93877 93.3053 10.2732C92.7019 10.6122 91.9781 10.7817 91.138 10.7863H85.7355ZM112.49 0.45096C112.374 0.45096 112.27 0.473883 112.18 0.51511C112.089 0.560923 112.012 0.62963 111.947 0.725843L104.502 12.2432C103.895 13.1915 103.352 14.0986 102.865 14.9598C102.383 15.8257 101.956 16.6412 101.581 17.4108H101.504C101.607 16.4625 101.685 15.4959 101.737 14.5063C101.788 13.5213 101.814 12.518 101.814 11.501V1.00072C101.818 0.799132 101.784 0.652553 101.715 0.570095C101.642 0.487606 101.512 0.446375 101.323 0.45096H100.47C100.28 0.446375 100.142 0.487606 100.065 0.570095C99.9872 0.652553 99.9484 0.799132 99.9528 1.00072V19.4174C99.9484 19.619 99.9872 19.7656 100.065 19.8481C100.142 19.9305 100.28 19.9718 100.47 19.9672H101.323C101.439 19.9672 101.543 19.9397 101.633 19.8893C101.724 19.8343 101.801 19.761 101.866 19.6648L109.491 7.87261C110.099 6.88305 110.633 5.98055 111.098 5.16966C111.559 4.35877 111.947 3.63954 112.257 3.00733H112.309C112.192 3.98314 112.111 4.93603 112.055 5.87061C111.999 6.80517 111.973 7.72145 111.973 8.6148V19.4174C111.973 19.619 112.007 19.7656 112.085 19.8481C112.167 19.9305 112.3 19.9718 112.49 19.9672H113.343C113.532 19.9718 113.67 19.9305 113.748 19.8481C113.825 19.7656 113.864 19.619 113.86 19.4174V1.00072C113.864 0.799132 113.825 0.652553 113.748 0.570095C113.67 0.487606 113.532 0.446375 113.343 0.45096H112.49ZM117.35 13.4526C117.354 14.8957 117.629 16.1326 118.181 17.1589C118.733 18.185 119.534 18.973 120.585 19.5228C121.636 20.068 122.92 20.3474 124.432 20.352C125.729 20.352 126.836 20.1733 127.758 19.8114C128.676 19.4541 129.43 18.9181 130.016 18.208C130.606 17.4933 131.054 16.6045 131.36 15.5417C131.412 15.3768 131.412 15.2393 131.36 15.1248C131.308 15.0148 131.205 14.9232 131.05 14.8545L130.248 14.5246C130.093 14.4834 129.96 14.4926 129.843 14.5475C129.731 14.6071 129.641 14.717 129.576 14.8819C129.339 15.7157 129.008 16.3984 128.581 16.9344C128.155 17.4704 127.603 17.869 126.927 18.1255C126.25 18.3821 125.419 18.5103 124.432 18.5103C123.316 18.5058 122.377 18.3042 121.602 17.9102C120.831 17.5116 120.245 16.939 119.844 16.1876C119.439 15.4409 119.241 14.5384 119.237 13.4801V6.93803C119.237 5.87061 119.435 4.96354 119.831 4.21677C120.228 3.47 120.809 2.89736 121.58 2.50337C122.351 2.10939 123.303 1.90783 124.432 1.90783C125.402 1.90324 126.22 2.03152 126.888 2.28348C127.56 2.53543 128.107 2.92484 128.534 3.44714C128.956 3.96938 129.288 4.63825 129.525 5.45369C129.589 5.60489 129.675 5.70569 129.783 5.76068C129.891 5.81563 130.029 5.8248 130.197 5.78357L130.998 5.4812C131.188 5.41708 131.304 5.33 131.347 5.22465C131.39 5.11926 131.377 4.96809 131.308 4.76652C131.002 3.71283 130.554 2.83782 129.968 2.14145C129.382 1.44511 128.633 0.927403 127.719 0.583815C126.806 0.235645 125.712 0.066143 124.432 0.066143C122.903 0.0707273 121.615 0.345578 120.564 0.895341C119.512 1.44511 118.711 2.23308 118.168 3.25929C117.625 4.28548 117.354 5.52243 117.35 6.96551V13.4526ZM133.17 0.45096C132.98 0.446375 132.842 0.487606 132.764 0.570095C132.687 0.652553 132.648 0.799132 132.652 1.00072V1.77039C132.648 1.97195 132.687 2.11397 132.764 2.20101C132.842 2.28347 132.98 2.32012 133.17 2.32012H138.391V19.4174C138.387 19.619 138.425 19.7656 138.503 19.8481C138.58 19.9305 138.719 19.9718 138.908 19.9672H139.761C139.951 19.9718 140.088 19.9305 140.166 19.8481C140.244 19.7656 140.282 19.619 140.278 19.4174V2.32012H145.5C145.689 2.32012 145.827 2.28347 145.905 2.20101C145.982 2.11397 146.021 1.97195 146.017 1.77039V1.00072C146.021 0.799132 145.982 0.652553 145.905 0.570095C145.827 0.487606 145.689 0.446375 145.5 0.45096H133.17ZM147.826 13.4526C147.83 14.8957 148.106 16.1326 148.653 17.1589C149.2 18.185 150.002 18.973 151.057 19.5228C152.113 20.068 153.405 20.3474 154.935 20.352C156.455 20.3474 157.739 20.068 158.795 19.5228C159.846 18.973 160.647 18.185 161.195 17.1589C161.737 16.1326 162.013 14.8957 162.017 13.4526V6.96551C162.013 5.52243 161.737 4.28548 161.195 3.25929C160.647 2.23308 159.846 1.44511 158.795 0.895341C157.739 0.345578 156.455 0.0707273 154.935 0.066143C153.405 0.0707273 152.113 0.345578 151.057 0.895341C150.002 1.44511 149.2 2.23308 148.653 3.25929C148.106 4.28548 147.83 5.52243 147.826 6.96551V13.4526ZM160.156 13.4526C160.156 14.5292 159.954 15.4409 159.557 16.1922C159.157 16.9435 158.571 17.5208 157.796 17.9148C157.02 18.3088 156.064 18.5058 154.935 18.5103C153.806 18.5058 152.85 18.3088 152.07 17.9148C151.29 17.5208 150.7 16.9435 150.295 16.1922C149.89 15.4409 149.687 14.5292 149.687 13.4526V6.96551C149.687 5.88895 149.89 4.97729 150.295 4.22597C150.7 3.47 151.29 2.89736 152.07 2.50337C152.85 2.10939 153.806 1.90783 154.935 1.90783C156.064 1.90783 157.02 2.10939 157.796 2.50337C158.571 2.89736 159.157 3.47 159.557 4.22597C159.954 4.97729 160.156 5.88895 160.156 6.96551V13.4526ZM166.024 0.45096C165.834 0.446375 165.697 0.487606 165.619 0.570095C165.542 0.652553 165.503 0.799132 165.507 1.00072V19.4174C165.503 19.619 165.542 19.7656 165.619 19.8481C165.697 19.9305 165.834 19.9718 166.024 19.9672H173.598C174.697 19.9626 175.649 19.7565 176.446 19.3441C177.243 18.9318 177.859 18.3362 178.29 17.5574C178.725 16.774 178.945 15.8303 178.949 14.717C178.949 13.3976 178.69 12.3394 178.178 11.5377C177.661 10.7405 176.894 10.1953 175.873 9.90674V9.85175C176.687 9.48065 177.294 8.92631 177.7 8.18874C178.1 7.45117 178.303 6.53948 178.303 5.45369C178.298 4.37711 178.104 3.47 177.717 2.72786C177.329 1.9857 176.765 1.41763 176.019 1.03278C175.278 0.647969 174.378 0.45096 173.314 0.45096H166.024ZM176.39 5.70111C176.385 6.84181 176.105 7.69852 175.541 8.27578C174.977 8.84843 174.158 9.13708 173.081 9.13708H167.368V2.32012H173.081C174.18 2.32012 175.007 2.59959 175.558 3.16308C176.114 3.72658 176.39 4.57412 176.39 5.70111ZM176.105 17.191C175.808 17.4933 175.442 17.7224 175.007 17.8735C174.572 18.0247 174.076 18.098 173.521 18.098H167.368V10.9237H173.521C174.076 10.9237 174.572 10.997 175.007 11.1482C175.442 11.2994 175.808 11.5285 176.105 11.8308C176.403 12.147 176.622 12.5272 176.769 12.9716C176.915 13.416 176.984 13.9337 176.984 14.5246C176.984 15.1156 176.915 15.6333 176.769 16.0731C176.622 16.5175 176.403 16.8886 176.105 17.191Z" fill="#140A32"/>
<path id="Vector_3" d="M5.4187 26.1506H4.2091V24.144C4.2109 24.0449 4.19303 23.9777 4.15735 23.9405C4.11988 23.9051 4.05212 23.8874 3.95223 23.8892H3.50262C3.40273 23.8874 3.33492 23.9051 3.29744 23.9405C3.2618 23.9777 3.24396 24.0449 3.24573 24.144V29.1127C3.24573 29.2825 3.33135 29.3675 3.50262 29.3675H3.95223C4.05212 29.3692 4.11988 29.3516 4.15735 29.3162C4.19303 29.279 4.2109 29.2118 4.2091 29.1127V27.0318H5.4187V27.5095C5.42047 27.9324 5.51326 28.2934 5.69523 28.5942C5.87898 28.895 6.14481 29.1251 6.4945 29.2843C6.84235 29.4436 7.26519 29.525 7.76292 29.5267C8.26424 29.525 8.68885 29.4436 9.0403 29.2843C9.38999 29.1251 9.65759 28.895 9.84133 28.5942C10.0233 28.2934 10.1161 27.9324 10.1179 27.5095V25.7471C10.1161 25.3242 10.0233 24.9633 9.84133 24.6624C9.65759 24.3616 9.38999 24.1316 9.0403 23.9723C8.68885 23.8113 8.26424 23.7317 7.76292 23.7299C7.26519 23.7317 6.84235 23.8113 6.4945 23.9723C6.14481 24.1316 5.87898 24.3616 5.69523 24.6624C5.51326 24.9633 5.42047 25.3242 5.4187 25.7471V26.1506ZM9.15446 27.5095C9.15446 27.7502 9.09738 27.9572 8.98679 28.1306C8.87619 28.3023 8.71742 28.435 8.50867 28.527C8.30172 28.619 8.05372 28.6668 7.76292 28.6668C7.47391 28.6668 7.22595 28.619 7.019 28.527C6.81381 28.435 6.65681 28.3023 6.54801 28.1306C6.43739 27.9572 6.38387 27.7502 6.38207 27.5095V25.7471C6.38387 25.503 6.43739 25.2941 6.54801 25.1207C6.65681 24.9491 6.81381 24.8182 7.019 24.7262C7.22595 24.6359 7.47391 24.5899 7.76292 24.5899C8.20893 24.5917 8.55328 24.6925 8.79234 24.8942C9.03137 25.0942 9.15269 25.3791 9.15446 25.7471V27.5095ZM11.6807 24.0378C11.5683 24.0821 11.4809 24.1281 11.4202 24.1776C11.3596 24.2271 11.3185 24.2873 11.2954 24.3616C11.2722 24.4342 11.2615 24.5279 11.2632 24.643V31.4483C11.2615 31.5388 11.2811 31.6025 11.3185 31.6431C11.356 31.6837 11.4202 31.7031 11.5094 31.7031H11.959C12.0589 31.7049 12.1267 31.6874 12.1642 31.652C12.1999 31.6148 12.2177 31.5474 12.2159 31.4483V29.2401C12.4942 29.3356 12.7494 29.4064 12.9795 29.4542C13.2114 29.502 13.4201 29.5267 13.6075 29.5267C15.1275 29.5267 15.8875 28.8048 15.8875 27.3609V25.8639C15.8875 25.1526 15.7001 24.6182 15.3273 24.2625C14.9526 23.9069 14.3942 23.7299 13.6503 23.7299C13.2596 23.7299 12.901 23.7565 12.5727 23.8078C12.2463 23.8609 11.9483 23.937 11.6807 24.0378ZM14.9241 27.329C14.9241 27.7696 14.8099 28.1006 14.578 28.3235C14.3461 28.5447 13.9982 28.6562 13.5325 28.6562C13.3612 28.6562 13.1668 28.6331 12.9474 28.5854C12.7261 28.5394 12.4835 28.4703 12.2159 28.3801V24.9827C12.2141 24.9208 12.2231 24.8748 12.2445 24.8429C12.2641 24.8111 12.3086 24.7846 12.3765 24.7598C12.5584 24.7067 12.744 24.666 12.9313 24.6394C13.1204 24.6129 13.3131 24.6005 13.5111 24.6005C13.9821 24.6005 14.3353 24.7085 14.5709 24.9261C14.8063 25.1419 14.9241 25.4658 14.9241 25.8958V27.329ZM17.3004 23.8892C17.2006 23.8874 17.1327 23.9051 17.0953 23.9405C17.0596 23.9777 17.0418 24.0449 17.0435 24.144V29.1127C17.0435 29.2825 17.1292 29.3675 17.3004 29.3675H17.75C17.8571 29.3675 17.9427 29.325 18.0069 29.2401L20.3083 26.1293C20.4314 25.9542 20.5438 25.7861 20.6437 25.625C20.7454 25.464 20.8328 25.3065 20.9078 25.1526H20.9399C20.881 25.4286 20.8382 25.6834 20.8097 25.9187C20.7829 26.1523 20.7686 26.3682 20.7686 26.5646V29.1127C20.7668 29.2118 20.7847 29.279 20.8204 29.3162C20.8578 29.3516 20.9256 29.3692 21.0255 29.3675H21.4751C21.575 29.3692 21.6428 29.3516 21.6803 29.3162C21.716 29.279 21.7338 29.2118 21.732 29.1127V24.144C21.7338 24.0449 21.716 23.9777 21.6803 23.9405C21.6428 23.9051 21.575 23.8874 21.4751 23.8892H21.0255C20.972 23.8892 20.9238 23.8998 20.8828 23.921C20.8418 23.9423 20.8061 23.9741 20.7793 24.0166L18.4458 27.1592C18.2103 27.467 18.0176 27.7856 17.8678 28.1147H17.8357C17.8945 27.8864 17.9373 27.6582 17.9659 27.4282C17.9927 27.1999 18.0069 26.9681 18.0069 26.7345V24.144C18.0087 24.0449 17.9909 23.9777 17.9552 23.9405C17.9177 23.9051 17.8499 23.8874 17.75 23.8892H17.3004ZM27.887 28.4863V24.144C27.887 24.0449 27.8673 23.9777 27.8263 23.9405C27.7853 23.9051 27.721 23.8874 27.6301 23.8892H24.0976C24.0067 23.8874 23.9424 23.9051 23.9014 23.9405C23.8604 23.9777 23.8408 24.0449 23.8408 24.144V25.7471C23.8408 26.1877 23.8247 26.5646 23.7943 26.8796C23.7623 27.1928 23.7177 27.4458 23.6588 27.6369C23.5946 27.8334 23.5196 28.0014 23.4322 28.1412C23.3466 28.281 23.2467 28.396 23.1343 28.4863H22.8453C22.7561 28.4845 22.6918 28.504 22.6544 28.5429C22.6169 28.5836 22.5973 28.6526 22.599 28.7517V30.5884C22.5973 30.6787 22.6169 30.7424 22.6544 30.7831C22.6918 30.8237 22.7561 30.8434 22.8453 30.8434H23.2627C23.3537 30.8434 23.4215 30.8218 23.4643 30.7794C23.5089 30.7371 23.5303 30.6734 23.5303 30.5884V29.3675H27.7585V30.5884C27.7585 30.6787 27.7782 30.7424 27.8192 30.7831C27.8602 30.8237 27.9262 30.8434 28.0154 30.8434H28.4329C28.5328 30.8434 28.6006 30.8237 28.6381 30.7831C28.6737 30.7424 28.6916 30.6787 28.6898 30.5884V28.7517C28.6916 28.6526 28.6737 28.5836 28.6381 28.5429C28.6006 28.504 28.5328 28.4845 28.4329 28.4863H27.887ZM24.772 24.7704H26.9236V28.4863H24.2368C24.4135 28.2315 24.5473 27.8811 24.6364 27.4335C24.7274 26.9875 24.772 26.4426 24.772 25.8002V24.7704ZM29.7923 23.8892C29.6924 23.8874 29.6246 23.9051 29.5871 23.9405C29.5515 23.9777 29.5337 24.0449 29.5354 24.144V29.1127C29.5354 29.2825 29.6211 29.3675 29.7923 29.3675H30.2419C30.349 29.3675 30.4346 29.325 30.4988 29.2401L32.8001 26.1293C32.9233 25.9542 33.0356 25.7861 33.1358 25.625C33.2372 25.464 33.3247 25.3065 33.3998 25.1526H33.4317C33.3728 25.4286 33.33 25.6834 33.3014 25.9187C33.2748 26.1523 33.2605 26.3682 33.2605 26.5646V29.1127C33.2586 29.2118 33.2766 29.279 33.3123 29.3162C33.3498 29.3516 33.4175 29.3692 33.5174 29.3675H33.9669C34.0668 29.3692 34.1347 29.3516 34.1722 29.3162C34.2079 29.279 34.2256 29.2118 34.2237 29.1127V24.144C34.2256 24.0449 34.2079 23.9777 34.1722 23.9405C34.1347 23.9051 34.0668 23.8874 33.9669 23.8892H33.5174C33.464 23.8892 33.4156 23.8998 33.3747 23.921C33.3337 23.9423 33.298 23.9741 33.271 24.0166L30.9377 27.1592C30.7022 27.467 30.5095 27.7856 30.3597 28.1147H30.3276C30.3864 27.8864 30.4292 27.6582 30.4578 27.4282C30.4845 27.1999 30.4988 26.9681 30.4988 26.7345V24.144C30.5006 24.0449 30.4827 23.9777 30.4471 23.9405C30.4096 23.9051 30.3418 23.8874 30.2419 23.8892H29.7923ZM35.2301 25.4286C35.2282 26.1028 35.4032 26.6071 35.7581 26.9433C36.1133 27.2777 36.6609 27.4458 37.4029 27.4458C38.0345 27.4458 38.4841 27.3928 38.7518 27.2866V29.1127C38.7518 29.2118 38.7713 29.279 38.8126 29.3162C38.8535 29.3516 38.9178 29.3692 39.0087 29.3675H39.4582C39.5494 29.3692 39.6136 29.3516 39.6545 29.3162C39.6955 29.279 39.7153 29.2118 39.7153 29.1127V24.144C39.7153 24.0449 39.6955 23.9777 39.6545 23.9405C39.6136 23.9051 39.5494 23.8874 39.4582 23.8892H39.0087C38.9178 23.8874 38.8535 23.9051 38.8126 23.9405C38.7713 23.9777 38.7518 24.0449 38.7518 24.144V26.3948C38.4307 26.5222 38.024 26.5859 37.5314 26.5859C36.6323 26.5859 36.1828 26.193 36.1828 25.4074V24.144C36.1847 24.0538 36.1648 23.99 36.1276 23.9494C36.0901 23.9086 36.0258 23.8892 35.9365 23.8892H35.487C35.3871 23.8874 35.3191 23.9051 35.2819 23.9405C35.2462 23.9777 35.2282 24.0449 35.2301 24.144V25.4286ZM40.8498 27.3184C40.8498 27.7732 40.9373 28.166 41.112 28.4951C41.2869 28.8243 41.5491 29.0773 41.9006 29.256C42.2539 29.4347 42.6944 29.525 43.2262 29.5267C43.7827 29.5267 44.2539 29.4365 44.6374 29.2542C45.0227 29.0738 45.3189 28.7995 45.5277 28.4332C45.6453 28.2527 45.6134 28.1147 45.4312 28.0191L45.1421 27.8705C45.0531 27.8121 44.9765 27.7909 44.9138 27.8068C44.8496 27.8227 44.7872 27.8758 44.7249 27.9661C44.5803 28.2103 44.3824 28.3942 44.1342 28.5163C43.8845 28.6385 43.5848 28.6986 43.237 28.6986C42.7695 28.6969 42.4143 28.5871 42.1702 28.3677C41.9273 28.1501 41.8044 27.8351 41.8025 27.4246V26.915H45.2923C45.426 26.915 45.5259 26.8831 45.5901 26.8212C45.6562 26.7575 45.6881 26.6655 45.6881 26.5434V25.9276C45.6881 25.4853 45.5954 25.1013 45.4136 24.7722C45.2296 24.4448 44.9585 24.1882 44.5998 24.0078C44.2412 23.8255 43.797 23.7335 43.269 23.7299C42.7444 23.7317 42.302 23.8202 41.9415 23.9971C41.5832 24.1758 41.3118 24.4324 41.1281 24.7704C40.9426 25.1083 40.8498 25.5189 40.8498 26.0019V27.3184ZM44.7354 26.1824H41.8025V25.8746C41.8025 25.5932 41.8596 25.3543 41.9701 25.1543C42.0827 24.9562 42.2486 24.8022 42.4661 24.6978C42.6839 24.5917 42.9513 24.5368 43.269 24.5368C43.747 24.5386 44.1109 24.6554 44.3591 24.8872C44.6088 25.1172 44.7339 25.4463 44.7354 25.8746V26.1824ZM46.5766 27.3822C46.5766 27.8369 46.6641 28.2226 46.8372 28.5429C47.0103 28.8614 47.2687 29.1038 47.6149 29.2719C47.9611 29.44 48.3927 29.525 48.9101 29.5267C50.1197 29.5267 50.9011 29.0384 51.2545 28.0616C51.2864 27.9767 51.2864 27.9041 51.256 27.8457C51.2241 27.7856 51.1633 27.7378 51.0724 27.7006L50.6976 27.5945C50.5996 27.5555 50.523 27.5502 50.4712 27.575C50.4194 27.6015 50.3731 27.6634 50.3337 27.7643C50.232 28.0722 50.0663 28.304 49.8324 28.458C49.6007 28.6119 49.301 28.688 48.9315 28.688C48.4749 28.6845 48.1305 28.5748 47.8951 28.3553C47.6596 28.1359 47.5417 27.8262 47.5398 27.4246V25.8214C47.5417 25.4215 47.6596 25.1119 47.8951 24.896C48.1305 24.6801 48.4749 24.5704 48.9315 24.5686C49.301 24.5686 49.6007 24.643 49.8324 24.7916C50.0626 24.9402 50.2267 25.1632 50.3232 25.4605C50.3607 25.556 50.4088 25.618 50.4693 25.6445C50.5283 25.6728 50.6015 25.6675 50.6871 25.6303L51.0618 25.5136C51.1527 25.4817 51.2117 25.4357 51.2402 25.3773C51.2669 25.3171 51.265 25.2428 51.2331 25.1526C51.0832 24.6801 50.8208 24.3245 50.4445 24.0874C50.0697 23.8485 49.5793 23.7299 48.9743 23.7299C48.4426 23.7317 47.9987 23.8166 47.6435 23.983C47.2886 24.1511 47.0227 24.3935 46.8443 24.712C46.6659 25.0287 46.5766 25.4127 46.5766 25.8639V27.3822ZM55.9963 27.1804C55.884 26.9522 55.7555 26.7663 55.6128 26.6213C55.4683 26.4779 55.3113 26.3735 55.1401 26.3098L56.8528 24.1865C56.9332 24.0856 56.9598 24.0113 56.9332 23.9617C56.9062 23.9139 56.8258 23.8892 56.6921 23.8892H56.2854C56.1837 23.8874 56.1033 23.891 56.0462 23.898C55.9876 23.9051 55.9392 23.9228 55.9001 23.9511C55.8626 23.9777 55.8232 24.0219 55.7822 24.0803L54.1874 26.1293H54.0909H53.2455V24.144C53.2471 24.0449 53.2275 23.9777 53.1884 23.9405C53.1472 23.9051 53.0777 23.8874 52.9778 23.8892H52.5497C52.4498 23.8874 52.38 23.9051 52.339 23.9405C52.2999 23.9777 52.2801 24.0449 52.282 24.144V29.1021C52.2801 29.2011 52.2999 29.2702 52.339 29.3109C52.38 29.3498 52.4498 29.3692 52.5497 29.3675H52.9778C53.0777 29.3692 53.1472 29.3498 53.1884 29.3109C53.2275 29.2702 53.2471 29.2011 53.2455 29.1021V27.0105H54.2196C54.3853 27.0105 54.528 27.0282 54.6477 27.0672C54.7672 27.1061 54.8689 27.168 54.9545 27.2547C55.0402 27.3397 55.1168 27.4529 55.1829 27.5945L55.9215 29.1339C55.9519 29.1994 55.982 29.2507 56.0143 29.2843C56.0447 29.3179 56.0875 29.3409 56.139 29.3516C56.1927 29.3622 56.2659 29.3675 56.3602 29.3675H56.7777C56.9009 29.3675 56.9741 29.3445 56.9989 29.2985C57.0241 29.2507 57.0027 29.1746 56.9384 29.0702L55.9963 27.1804ZM58.1157 23.8892C58.0158 23.8874 57.9482 23.9051 57.9107 23.9405C57.875 23.9777 57.857 24.0449 57.8589 24.144V29.1127C57.8589 29.2825 57.9445 29.3675 58.1157 29.3675H58.5656C58.6726 29.3675 58.7582 29.325 58.8224 29.2401L61.1237 26.1293C61.2468 25.9542 61.3591 25.7861 61.459 25.625C61.5608 25.464 61.6483 25.3065 61.723 25.1526H61.7553C61.6964 25.4286 61.6535 25.6834 61.625 25.9187C61.5983 26.1523 61.5841 26.3682 61.5841 26.5646V29.1127C61.5822 29.2118 61.6002 29.279 61.6359 29.3162C61.6731 29.3516 61.741 29.3692 61.8409 29.3675H62.2904C62.3903 29.3692 62.4583 29.3516 62.4958 29.3162C62.5315 29.279 62.5492 29.2118 62.5473 29.1127V24.144C62.5492 24.0449 62.5315 23.9777 62.4958 23.9405C62.4583 23.9051 62.3903 23.8874 62.2904 23.8892H61.8409C61.7873 23.8892 61.7392 23.8998 61.6982 23.921C61.6573 23.9423 61.6216 23.9741 61.5946 24.0166L59.2611 27.1592C59.0256 27.467 58.833 27.7856 58.6831 28.1147H58.6512C58.7098 27.8864 58.7526 27.6582 58.7812 27.4282C58.8082 27.1999 58.8224 26.9681 58.8224 26.7345V24.144C58.824 24.0449 58.8063 23.9777 58.7706 23.9405C58.7331 23.9051 58.6655 23.8874 58.5656 23.8892H58.1157ZM63.6821 27.3184C63.6821 27.7732 63.7696 28.166 63.9443 28.4951C64.1192 28.8243 64.3814 29.0773 64.7328 29.256C65.0862 29.4347 65.5267 29.525 66.0584 29.5267C66.615 29.5267 67.0859 29.4365 67.4697 29.2542C67.855 29.0738 68.1512 28.7995 68.3597 28.4332C68.4776 28.2527 68.4453 28.1147 68.2635 28.0191L67.9744 27.8705C67.8854 27.8121 67.8084 27.7909 67.7461 27.8068C67.6818 27.8227 67.6195 27.8758 67.5571 27.9661C67.4126 28.2103 67.2143 28.3942 66.9665 28.5163C66.7167 28.6385 66.4171 28.6986 66.069 28.6986C65.6018 28.6969 65.2466 28.5871 65.0021 28.3677C64.7595 28.1501 64.6364 27.8351 64.6348 27.4246V26.915H68.1242C68.2582 26.915 68.3581 26.8831 68.4224 26.8212C68.4884 26.7575 68.5204 26.6655 68.5204 26.5434V25.9276C68.5204 25.4853 68.4276 25.1013 68.2455 24.7722C68.0619 24.4448 67.7907 24.1882 67.4321 24.0078C67.0735 23.8255 66.6293 23.7335 66.1012 23.7299C65.5767 23.7317 65.1343 23.8202 64.7738 23.9971C64.4152 24.1758 64.144 24.4324 63.9604 24.7704C63.7749 25.1083 63.6821 25.5189 63.6821 26.0019V27.3184ZM67.5677 26.1824H64.6348V25.8746C64.6348 25.5932 64.6919 25.3543 64.8023 25.1543C64.9149 24.9562 65.0806 24.8022 65.2984 24.6978C65.5162 24.5917 65.7836 24.5368 66.1012 24.5368C66.5793 24.5386 66.9432 24.6554 67.1914 24.8872C67.4411 25.1172 67.5658 25.4463 67.5677 25.8746V26.1824ZM75.7458 27.1804C75.6332 26.9522 75.5048 26.7663 75.3621 26.6213C75.2178 26.4779 75.0606 26.3735 74.8893 26.3098L76.6021 24.1865C76.6824 24.0856 76.7091 24.0113 76.6824 23.9617C76.6557 23.9139 76.5754 23.8892 76.4417 23.8892H76.0347C75.9332 23.8874 75.8529 23.891 75.7958 23.898C75.7368 23.9051 75.6888 23.9228 75.6494 23.9511C75.6118 23.9777 75.5727 24.0219 75.5318 24.0803L73.9366 26.1293H73.8404H72.9948V24.144C72.9966 24.0449 72.9768 23.9777 72.9377 23.9405C72.8967 23.9051 72.8269 23.8874 72.727 23.8892H72.2989C72.199 23.8874 72.1295 23.9051 72.0886 23.9405C72.0492 23.9777 72.0297 24.0449 72.0315 24.144V29.1021C72.0297 29.2011 72.0492 29.2702 72.0886 29.3109C72.1295 29.3498 72.199 29.3692 72.2989 29.3675H72.727C72.8269 29.3692 72.8967 29.3498 72.9377 29.3109C72.9768 29.2702 72.9966 29.2011 72.9948 29.1021V27.0105H73.9689C74.1348 27.0105 74.2775 27.0282 74.397 27.0672C74.5164 27.1061 74.6182 27.168 74.7038 27.2547C74.7894 27.3397 74.8664 27.4529 74.9321 27.5945L75.6708 29.1339C75.7012 29.1994 75.7316 29.2507 75.7635 29.2843C75.7939 29.3179 75.8367 29.3409 75.8885 29.3516C75.9419 29.3622 76.0151 29.3675 76.1097 29.3675H76.5273C76.6502 29.3675 76.7234 29.3445 76.7485 29.2985C76.7733 29.2507 76.7519 29.1746 76.6877 29.0702L75.7458 27.1804ZM77.4372 27.4989C77.4387 27.9218 77.5352 28.2846 77.726 28.5854C77.9168 28.888 78.1898 29.1198 78.5469 29.2825C78.9036 29.4436 79.3336 29.525 79.8349 29.5267C80.3468 29.525 80.782 29.4436 81.1388 29.2825C81.4974 29.1198 81.7704 28.888 81.9597 28.5854C82.147 28.2846 82.2413 27.9218 82.2432 27.4989V25.7684C82.2413 25.3419 82.147 24.9774 81.9597 24.6731C81.7704 24.3705 81.4974 24.1369 81.1388 23.9759C80.782 23.8131 80.3468 23.7317 79.8349 23.7299C79.3336 23.7317 78.9036 23.8131 78.5469 23.9759C78.1898 24.1369 77.9168 24.3705 77.726 24.6731C77.5352 24.9774 77.4387 25.3419 77.4372 25.7684V27.4989ZM81.2905 27.4989C81.2905 27.7431 81.2316 27.9537 81.1158 28.1271C80.9998 28.3005 80.8339 28.435 80.6161 28.527C80.4005 28.619 80.1399 28.6668 79.8349 28.6668C79.5334 28.6668 79.2765 28.619 79.0606 28.527C78.8447 28.435 78.6806 28.3005 78.5646 28.1271C78.4485 27.9537 78.3914 27.7431 78.3896 27.4989V25.7578C78.3914 25.5118 78.4485 25.303 78.5646 25.1296C78.6806 24.9544 78.8447 24.8217 79.0606 24.7297C79.2765 24.6377 79.5334 24.5899 79.8349 24.5899C80.1399 24.5899 80.4005 24.6377 80.6161 24.7297C80.8339 24.8217 80.9998 24.9544 81.1158 25.1296C81.2316 25.303 81.2905 25.5118 81.2905 25.7578V27.4989ZM87.3278 23.8892C87.2369 23.8874 87.1727 23.9051 87.1314 23.9405C87.0905 23.9777 87.0709 24.0449 87.0709 24.144V26.1293H84.3627V24.144C84.3645 24.0449 84.3465 23.9777 84.3109 23.9405C84.2736 23.9051 84.2057 23.8874 84.1058 23.8892H83.6563C83.5564 23.8874 83.4884 23.9051 83.4509 23.9405C83.4155 23.9777 83.3975 24.0449 83.3994 24.144V29.1127C83.3994 29.2825 83.485 29.3675 83.6563 29.3675H84.1058C84.2057 29.3692 84.2736 29.3516 84.3109 29.3162C84.3465 29.279 84.3645 29.2118 84.3627 29.1127V27.0105H87.0709V29.1127C87.0709 29.2118 87.0905 29.279 87.1314 29.3162C87.1727 29.3516 87.2369 29.3692 87.3278 29.3675H87.7773C87.8682 29.3692 87.9324 29.3516 87.9737 29.3162C88.0146 29.279 88.0342 29.2118 88.0342 29.1127V24.144C88.0342 24.0449 88.0146 23.9777 87.9737 23.9405C87.9324 23.9051 87.8682 23.8874 87.7773 23.8892H87.3278ZM89.1795 27.3822C89.1795 27.8369 89.267 28.2226 89.4401 28.5429C89.6132 28.8614 89.8719 29.1038 90.2178 29.2719C90.5641 29.44 90.9959 29.525 91.513 29.5267C92.7226 29.5267 93.5041 29.0384 93.8574 28.0616C93.8894 27.9767 93.8894 27.9041 93.8593 27.8457C93.827 27.7856 93.7665 27.7378 93.6753 27.7006L93.3009 27.5945C93.2025 27.5555 93.1259 27.5502 93.0741 27.575C93.0226 27.6015 92.9761 27.6634 92.937 27.7643C92.8352 28.0722 92.6693 28.304 92.4357 28.458C92.2036 28.6119 91.9039 28.688 91.5345 28.688C91.0778 28.6845 90.7334 28.5748 90.498 28.3553C90.2625 28.1359 90.1446 27.8262 90.1431 27.4246V25.8214C90.1446 25.4215 90.2625 25.1119 90.498 24.896C90.7334 24.6801 91.0778 24.5704 91.5345 24.5686C91.9039 24.5686 92.2036 24.643 92.4357 24.7916C92.6655 24.9402 92.8296 25.1632 92.9261 25.4605C92.9637 25.556 93.0117 25.618 93.0725 25.6445C93.1312 25.6728 93.2044 25.6675 93.29 25.6303L93.6648 25.5136C93.7557 25.4817 93.8146 25.4357 93.8431 25.3773C93.8698 25.3171 93.868 25.2428 93.836 25.1526C93.6862 24.6801 93.4237 24.3245 93.0474 24.0874C92.6727 23.8485 92.1822 23.7299 91.5773 23.7299C91.0458 23.7317 90.6016 23.8166 90.2464 23.983C89.8915 24.1511 89.6256 24.3935 89.4472 24.712C89.2689 25.0287 89.1795 25.4127 89.1795 25.8639V27.3822ZM98.8027 23.8892C98.7118 23.8874 98.6476 23.9051 98.6067 23.9405C98.5654 23.9777 98.5458 24.0449 98.5458 24.144V28.2315C98.3051 28.3058 98.0697 28.3624 97.841 28.3996C97.6111 28.4367 97.39 28.4544 97.1756 28.4544C96.7261 28.4544 96.3889 28.3482 96.1642 28.1377C95.9393 27.9254 95.827 27.6104 95.827 27.191V24.144C95.8289 24.0538 95.809 23.99 95.7718 23.9494C95.7343 23.9086 95.6701 23.8892 95.5807 23.8892H95.1312C95.0313 23.8874 94.9637 23.9051 94.9261 23.9405C94.8905 23.9777 94.8725 24.0449 94.8743 24.144V27.2229C94.8743 27.9236 95.0561 28.4491 95.4185 28.7995C95.7824 29.1498 96.3246 29.325 97.0472 29.325C97.2721 29.325 97.5094 29.3055 97.761 29.2684C98.0107 29.2312 98.2729 29.1764 98.5458 29.1021V29.6754C98.5458 30.1425 98.4317 30.4929 98.2015 30.7265C97.9732 30.96 97.6307 31.0769 97.1756 31.0769C96.8706 31.0769 96.6085 31.0185 96.3873 30.9C96.1677 30.7831 95.9874 30.6044 95.8484 30.3655C95.8075 30.3088 95.7662 30.2682 95.7287 30.2434C95.6896 30.2186 95.6468 30.2098 95.6003 30.215C95.554 30.2186 95.497 30.2381 95.4309 30.2699L95.1203 30.4398C95.0294 30.4876 94.9742 30.5442 94.9547 30.6097C94.9348 30.6751 94.9547 30.753 95.0133 30.8434C95.2221 31.2043 95.506 31.4751 95.868 31.6554C96.2285 31.836 96.6671 31.9262 97.1864 31.9262C98.728 31.9262 99.4986 31.1618 99.4986 29.6329V24.144C99.5004 24.0449 99.4824 23.9777 99.4467 23.9405C99.4092 23.9051 99.3416 23.8874 99.2417 23.8892H98.8027ZM101.639 23.8892C101.54 23.8874 101.472 23.9051 101.434 23.9405C101.399 23.9777 101.381 24.0449 101.383 24.144V25.8002C101.383 26.3523 101.356 26.8141 101.3 27.1857C101.243 27.5573 101.158 27.8386 101.04 28.0298C100.963 28.1554 100.894 28.2527 100.829 28.3235C100.765 28.3942 100.697 28.4544 100.626 28.5004C100.555 28.5464 100.467 28.5942 100.366 28.6455C100.307 28.6827 100.269 28.7252 100.253 28.7747C100.237 28.8225 100.242 28.8791 100.269 28.9428L100.494 29.3675C100.532 29.4365 100.574 29.4807 100.626 29.502C100.676 29.5232 100.735 29.5214 100.805 29.4949C100.949 29.4259 101.079 29.3533 101.195 29.2772C101.309 29.1994 101.418 29.1056 101.52 28.9941C101.623 28.8826 101.727 28.7429 101.832 28.5712C101.993 28.3164 102.112 27.9608 102.193 27.5078C102.273 27.0548 102.314 26.5062 102.314 25.8639V24.7704H104.38V29.1127C104.378 29.2118 104.396 29.279 104.431 29.3162C104.469 29.3516 104.537 29.3692 104.637 29.3675H105.075C105.166 29.3692 105.231 29.3516 105.272 29.3162C105.313 29.279 105.332 29.2118 105.332 29.1127V24.144C105.332 24.0449 105.313 23.9777 105.272 23.9405C105.231 23.9051 105.166 23.8874 105.075 23.8892H101.639ZM107.548 25.5454V24.144C107.55 24.0449 107.532 23.9777 107.496 23.9405C107.459 23.9051 107.391 23.8874 107.291 23.8892H106.842C106.742 23.8874 106.674 23.9051 106.637 23.9405C106.601 23.9777 106.583 24.0449 106.585 24.144V29.1127C106.583 29.2118 106.601 29.279 106.637 29.3162C106.674 29.3516 106.742 29.3692 106.842 29.3675H109.207C109.619 29.3657 109.973 29.2878 110.265 29.1357C110.558 28.9835 110.783 28.7641 110.94 28.4774C111.097 28.1908 111.175 27.8475 111.177 27.4458C111.175 27.0477 111.097 26.7079 110.94 26.4248C110.783 26.1417 110.558 25.9241 110.265 25.7737C109.973 25.6233 109.619 25.5472 109.207 25.5454H107.548ZM107.548 28.5181V26.4054H109.089C109.43 26.4089 109.694 26.5009 109.883 26.6832C110.073 26.8654 110.169 27.1185 110.171 27.4458C110.169 27.7838 110.073 28.0457 109.883 28.2333C109.694 28.4208 109.43 28.5146 109.089 28.5181H107.548ZM111.873 23.8892C111.773 23.8874 111.705 23.9051 111.667 23.9405C111.632 23.9777 111.614 24.0449 111.616 24.144V24.5156C111.614 24.6058 111.632 24.6695 111.667 24.7102C111.705 24.7509 111.773 24.7704 111.873 24.7704H113.435V29.1127C113.434 29.2118 113.452 29.279 113.487 29.3162C113.525 29.3516 113.592 29.3692 113.692 29.3675H114.142C114.231 29.3692 114.295 29.3516 114.333 29.3162C114.37 29.279 114.39 29.2118 114.388 29.1127V24.7704H115.951C116.042 24.7704 116.106 24.7509 116.147 24.7102C116.188 24.6695 116.208 24.6058 116.208 24.5156V24.144C116.208 24.0449 116.188 23.9777 116.147 23.9405C116.106 23.9051 116.042 23.8874 115.951 23.8892H111.873ZM116.914 24.8447C116.871 24.9296 116.861 25.0022 116.884 25.0606C116.906 25.1207 116.963 25.1685 117.054 25.2057L117.386 25.3543C117.451 25.3791 117.503 25.3914 117.539 25.3914C117.574 25.3914 117.607 25.3791 117.635 25.3525C117.664 25.3242 117.698 25.2835 117.739 25.2269C117.873 25.0093 118.049 24.8465 118.27 24.7403C118.49 24.6324 118.755 24.5793 119.066 24.5793C119.378 24.5793 119.628 24.6288 119.815 24.7244C120.003 24.8217 120.136 24.9633 120.218 25.1508C120.3 25.3402 120.342 25.5702 120.34 25.8427V26.2461C120.126 26.2196 119.917 26.2001 119.713 26.1895C119.51 26.1771 119.312 26.1718 119.119 26.1718C118.547 26.17 118.087 26.2231 117.735 26.3311C117.384 26.439 117.128 26.6142 116.968 26.8584C116.809 27.1043 116.731 27.4299 116.732 27.8386C116.732 28.1306 116.775 28.3836 116.859 28.596C116.945 28.8083 117.07 28.98 117.236 29.1127C117.401 29.2507 117.639 29.3533 117.947 29.4223C118.256 29.4914 118.632 29.5267 119.077 29.5267C119.478 29.5267 119.831 29.5037 120.138 29.4559C120.443 29.4099 120.704 29.3409 120.918 29.2507C121.018 29.21 121.094 29.1658 121.152 29.1197C121.207 29.0738 121.246 29.0136 121.269 28.9393C121.293 28.865 121.303 28.7676 121.303 28.6455V25.8746C121.305 25.4304 121.234 25.0482 121.087 24.7279C120.941 24.4094 120.706 24.1634 120.381 23.99C120.054 23.8184 119.624 23.7317 119.087 23.7299C118.558 23.7299 118.111 23.8219 117.748 24.0078C117.386 24.1935 117.107 24.4731 116.914 24.8447ZM120.34 28.3695C120.34 28.4279 120.327 28.4757 120.3 28.5146C120.274 28.5518 120.233 28.5818 120.179 28.6031C119.933 28.688 119.537 28.7305 118.991 28.7305C118.661 28.7305 118.402 28.6986 118.213 28.6331C118.024 28.5694 117.888 28.4703 117.81 28.3394C117.731 28.2067 117.694 28.0404 117.696 27.8386C117.694 27.6298 117.735 27.46 117.819 27.329C117.903 27.1981 118.04 27.1008 118.233 27.0388C118.427 26.9769 118.686 26.9468 119.012 26.9468C119.168 26.9468 119.357 26.9539 119.58 26.9698C119.803 26.984 120.056 27.0052 120.34 27.0318V28.3695ZM127.073 28.4863V24.144C127.073 24.0449 127.053 23.9777 127.012 23.9405C126.971 23.9051 126.907 23.8874 126.816 23.8892H126.366C126.275 23.8874 126.211 23.9051 126.17 23.9405C126.129 23.9777 126.109 24.0449 126.109 24.144V28.4863H123.508V24.144C123.51 24.0449 123.492 23.9777 123.457 23.9405C123.419 23.9051 123.351 23.8874 123.251 23.8892H122.802C122.63 23.8892 122.545 23.9741 122.545 24.144V29.1127C122.543 29.2118 122.561 29.279 122.597 29.3162C122.634 29.3516 122.702 29.3692 122.802 29.3675H126.944V30.5884C126.944 30.6787 126.964 30.7424 127.005 30.7831C127.046 30.8237 127.112 30.8434 127.201 30.8434H127.619C127.719 30.8434 127.786 30.8237 127.824 30.7831C127.86 30.7424 127.877 30.6787 127.875 30.5884V28.7517C127.877 28.6526 127.86 28.5836 127.824 28.5429C127.786 28.504 127.719 28.4845 127.619 28.4863H127.073Z" fill="#140A32"/>
<path id="Vector_4" d="M128.978 23.8894C128.878 23.8877 128.811 23.9054 128.773 23.9407C128.737 23.9779 128.719 24.0451 128.721 24.1442V29.1129C128.721 29.2828 128.807 29.3677 128.978 29.3677H129.428C129.535 29.3677 129.62 29.3253 129.684 29.2403L131.986 26.1296C132.109 25.9544 132.221 25.7863 132.321 25.6253C132.423 25.4643 132.511 25.3068 132.585 25.1528H132.618C132.559 25.4289 132.516 25.6837 132.487 25.919C132.461 26.1526 132.446 26.3685 132.446 26.5649V29.1129C132.445 29.212 132.462 29.2793 132.498 29.3164C132.535 29.3518 132.603 29.3695 132.703 29.3677H133.153C133.253 29.3695 133.321 29.3518 133.358 29.3164C133.393 29.2793 133.411 29.212 133.41 29.1129V24.1442C133.411 24.0451 133.393 23.9779 133.358 23.9407C133.321 23.9054 133.253 23.8877 133.153 23.8894H132.703C132.65 23.8894 132.601 23.9 132.561 23.9213C132.52 23.9425 132.484 23.9744 132.457 24.0168L130.123 27.1594C129.888 27.4673 129.695 27.7858 129.545 28.115H129.513C129.572 27.8867 129.615 27.6584 129.643 27.4284C129.67 27.2001 129.684 26.9683 129.684 26.7347V24.1442C129.686 24.0451 129.669 23.9779 129.633 23.9407C129.595 23.9054 129.527 23.8877 129.428 23.8894H128.978ZM134.994 23.8894C134.894 23.8877 134.826 23.9054 134.789 23.9407C134.753 23.9779 134.735 24.0451 134.737 24.1442V29.1129C134.737 29.2828 134.823 29.3677 134.994 29.3677H135.443C135.55 29.3677 135.636 29.3253 135.7 29.2403L138.002 26.1296C138.125 25.9544 138.237 25.7863 138.337 25.6253C138.439 25.4643 138.526 25.3068 138.601 25.1528H138.634C138.575 25.4289 138.532 25.6837 138.503 25.919C138.476 26.1526 138.462 26.3685 138.462 26.5649V29.1129C138.46 29.212 138.478 29.2793 138.514 29.3164C138.551 29.3518 138.619 29.3695 138.719 29.3677H139.169C139.269 29.3695 139.336 29.3518 139.374 29.3164C139.409 29.2793 139.427 29.212 139.426 29.1129V24.1442C139.427 24.0451 139.409 23.9779 139.374 23.9407C139.336 23.9054 139.269 23.8877 139.169 23.8894H138.719C138.665 23.8894 138.617 23.9 138.576 23.9213C138.535 23.9425 138.499 23.9744 138.473 24.0168L136.139 27.1594C135.904 27.4673 135.711 27.7858 135.561 28.115H135.529C135.588 27.8867 135.631 27.6584 135.659 27.4284C135.686 27.2001 135.7 26.9683 135.7 26.7347V24.1442C135.702 24.0451 135.684 23.9779 135.649 23.9407C135.611 23.9054 135.543 23.8877 135.443 23.8894H134.994ZM143.022 27.4991C143.024 27.9221 143.12 28.2848 143.311 28.5856C143.502 28.8882 143.775 29.12 144.132 29.2828C144.489 29.4438 144.919 29.5252 145.42 29.527C145.932 29.5252 146.367 29.4438 146.724 29.2828C147.083 29.12 147.356 28.8882 147.545 28.5856C147.732 28.2848 147.826 27.9221 147.828 27.4991V25.7686C147.826 25.3422 147.732 24.9776 147.545 24.6733C147.356 24.3707 147.083 24.1371 146.724 23.9761C146.367 23.8133 145.932 23.7319 145.42 23.7302C144.919 23.7319 144.489 23.8133 144.132 23.9761C143.775 24.1371 143.502 24.3707 143.311 24.6733C143.12 24.9776 143.024 25.3422 143.022 25.7686V27.4991ZM146.876 27.4991C146.876 27.7434 146.817 27.9539 146.701 28.1273C146.585 28.3007 146.419 28.4352 146.201 28.5272C145.986 28.6192 145.725 28.667 145.42 28.667C145.118 28.667 144.862 28.6192 144.646 28.5272C144.43 28.4352 144.266 28.3007 144.15 28.1273C144.034 27.9539 143.977 27.7434 143.975 27.4991V25.758C143.977 25.512 144.034 25.3032 144.15 25.1298C144.266 24.9546 144.43 24.8219 144.646 24.7299C144.862 24.6379 145.118 24.5901 145.42 24.5901C145.725 24.5901 145.986 24.6379 146.201 24.7299C146.419 24.8219 146.585 24.9546 146.701 25.1298C146.817 25.3032 146.876 25.512 146.876 25.758V27.4991ZM152.913 23.8894C152.822 23.8877 152.758 23.9054 152.717 23.9407C152.676 23.9779 152.656 24.0451 152.656 24.1442V26.1296H149.948V24.1442C149.95 24.0451 149.932 23.9779 149.896 23.9407C149.859 23.9054 149.791 23.8877 149.691 23.8894H149.241C149.141 23.8877 149.074 23.9054 149.036 23.9407C149 23.9779 148.983 24.0451 148.984 24.1442V29.1129C148.984 29.2828 149.07 29.3677 149.241 29.3677H149.691C149.791 29.3695 149.859 29.3518 149.896 29.3164C149.932 29.2793 149.95 29.212 149.948 29.1129V27.0108H152.656V29.1129C152.656 29.212 152.676 29.2793 152.717 29.3164C152.758 29.3518 152.822 29.3695 152.913 29.3677H153.362C153.453 29.3695 153.518 29.3518 153.559 29.3164C153.6 29.2793 153.619 29.212 153.619 29.1129V24.1442C153.619 24.0451 153.6 23.9779 153.559 23.9407C153.518 23.9054 153.453 23.8877 153.362 23.8894H152.913ZM155.782 23.8894C155.682 23.8877 155.614 23.9054 155.576 23.9407C155.541 23.9779 155.523 24.0451 155.525 24.1442V25.8005C155.525 26.3526 155.498 26.8144 155.443 27.186C155.386 27.5575 155.3 27.8389 155.182 28.03C155.106 28.1556 155.036 28.2529 154.972 28.3237C154.907 28.3945 154.84 28.4547 154.768 28.5007C154.697 28.5467 154.609 28.5945 154.508 28.6458C154.449 28.6829 154.412 28.7254 154.395 28.775C154.379 28.8227 154.385 28.8794 154.412 28.943L154.636 29.3677C154.674 29.4367 154.717 29.481 154.768 29.5022C154.818 29.5234 154.877 29.5217 154.947 29.4951C155.091 29.4261 155.222 29.3536 155.337 29.2775C155.451 29.1996 155.56 29.1058 155.662 28.9943C155.765 28.8829 155.869 28.7431 155.974 28.5714C156.135 28.3166 156.254 27.961 156.335 27.508C156.415 27.055 156.456 26.5065 156.456 25.8642V24.7706H158.522V29.1129C158.52 29.212 158.538 29.2793 158.574 29.3164C158.611 29.3518 158.679 29.3695 158.779 29.3677H159.218C159.309 29.3695 159.373 29.3518 159.414 29.3164C159.455 29.2793 159.474 29.212 159.474 29.1129V24.1442C159.474 24.0451 159.455 23.9779 159.414 23.9407C159.373 23.9054 159.309 23.8877 159.218 23.8894H155.782ZM160.62 24.845C160.577 24.9298 160.566 25.0024 160.59 25.0608C160.611 25.121 160.668 25.1687 160.759 25.2059L161.091 25.3546C161.157 25.3793 161.209 25.3917 161.244 25.3917C161.28 25.3917 161.312 25.3793 161.341 25.3528C161.369 25.3245 161.403 25.2838 161.444 25.2271C161.578 25.0095 161.755 24.8467 161.976 24.7406C162.195 24.6326 162.461 24.5795 162.772 24.5795C163.084 24.5795 163.333 24.629 163.521 24.7246C163.708 24.8219 163.842 24.9635 163.924 25.151C164.006 25.3404 164.047 25.5704 164.045 25.8429V26.2464C163.831 26.2198 163.622 26.2004 163.419 26.1898C163.216 26.1774 163.018 26.172 162.825 26.172C162.252 26.1703 161.792 26.2234 161.441 26.3313C161.089 26.4393 160.834 26.6144 160.673 26.8586C160.515 27.1046 160.436 27.4301 160.438 27.8389C160.438 28.1309 160.481 28.3839 160.565 28.5962C160.65 28.8086 160.775 28.9802 160.941 29.1129C161.107 29.2509 161.344 29.3536 161.653 29.4226C161.962 29.4916 162.338 29.527 162.782 29.527C163.183 29.527 163.537 29.504 163.844 29.4562C164.149 29.4102 164.409 29.3412 164.623 29.2509C164.723 29.2102 164.8 29.166 164.857 29.12C164.912 29.074 164.951 29.0138 164.975 28.9395C164.998 28.8652 165.009 28.7679 165.009 28.6458V25.8748C165.01 25.4306 164.939 25.0484 164.793 24.7282C164.647 24.4097 164.411 24.1637 164.086 23.9903C163.76 23.8186 163.33 23.7319 162.793 23.7302C162.263 23.7302 161.817 23.8222 161.453 24.008C161.091 24.1938 160.813 24.4734 160.62 24.845ZM164.045 28.3697C164.045 28.4281 164.033 28.4759 164.006 28.5148C163.979 28.552 163.938 28.5821 163.885 28.6033C163.639 28.6882 163.242 28.7307 162.696 28.7307C162.366 28.7307 162.108 28.6989 161.919 28.6334C161.729 28.5697 161.594 28.4706 161.515 28.3397C161.437 28.2069 161.4 28.0406 161.401 27.8389C161.4 27.6301 161.441 27.4602 161.524 27.3293C161.608 27.1983 161.746 27.101 161.938 27.0391C162.133 26.9772 162.392 26.9471 162.718 26.9471C162.873 26.9471 163.062 26.9542 163.285 26.9701C163.508 26.9842 163.762 27.0055 164.045 27.032V28.3697ZM170.286 22.0102C170.302 21.9571 170.302 21.9111 170.284 21.874C170.264 21.835 170.227 21.8032 170.168 21.7766L169.793 21.6386C169.686 21.6068 169.611 21.6386 169.569 21.7342C169.43 22.2014 169.119 22.4349 168.637 22.4349C168.397 22.4349 168.2 22.3765 168.049 22.2597C167.897 22.143 167.786 21.9678 167.717 21.7342C167.695 21.6864 167.663 21.6563 167.621 21.644C167.578 21.6316 167.524 21.6334 167.46 21.6493L167.128 21.7766C167.069 21.7926 167.032 21.8209 167.012 21.8616C166.994 21.9023 166.994 21.9518 167.01 22.0102C167.134 22.3871 167.33 22.6685 167.599 22.856C167.869 23.0418 168.215 23.1356 168.637 23.1356C169.066 23.1356 169.417 23.0418 169.69 22.856C169.965 22.6685 170.163 22.3871 170.286 22.0102ZM166.507 23.8894C166.407 23.8877 166.339 23.9054 166.302 23.9407C166.267 23.9779 166.249 24.0451 166.25 24.1442V29.1129C166.25 29.2828 166.336 29.3677 166.507 29.3677H166.957C167.064 29.3677 167.149 29.3253 167.214 29.2403L169.515 26.1296C169.638 25.9544 169.751 25.7863 169.851 25.6253C169.952 25.4643 170.04 25.3068 170.115 25.1528H170.147C170.088 25.4289 170.045 25.6837 170.017 25.919C169.99 26.1526 169.976 26.3685 169.976 26.5649V29.1129C169.974 29.212 169.991 29.2793 170.027 29.3164C170.065 29.3518 170.133 29.3695 170.232 29.3677H170.682C170.782 29.3695 170.85 29.3518 170.887 29.3164C170.923 29.2793 170.941 29.212 170.939 29.1129V24.1442C170.941 24.0451 170.923 23.9779 170.887 23.9407C170.85 23.9054 170.782 23.8877 170.682 23.8894H170.232C170.179 23.8894 170.131 23.9 170.09 23.9213C170.048 23.9425 170.013 23.9744 169.986 24.0168L167.653 27.1594C167.417 27.4673 167.225 27.7858 167.075 28.115H167.042C167.101 27.8867 167.144 27.6584 167.173 27.4284C167.199 27.2001 167.214 26.9683 167.214 26.7347V24.1442C167.216 24.0451 167.198 23.9779 167.162 23.9407C167.125 23.9054 167.057 23.8877 166.957 23.8894H166.507ZM176.195 23.8894C176.104 23.8877 176.04 23.9054 175.998 23.9407C175.957 23.9779 175.938 24.0451 175.938 24.1442V26.1296H173.23V24.1442C173.231 24.0451 173.213 23.9779 173.178 23.9407C173.14 23.9054 173.073 23.8877 172.973 23.8894H172.523C172.423 23.8877 172.355 23.9054 172.318 23.9407C172.282 23.9779 172.264 24.0451 172.266 24.1442V29.1129C172.266 29.2828 172.352 29.3677 172.523 29.3677H172.973C173.073 29.3695 173.14 29.3518 173.178 29.3164C173.213 29.2793 173.231 29.212 173.23 29.1129V27.0108H175.938V29.1129C175.938 29.212 175.957 29.2793 175.998 29.3164C176.04 29.3518 176.104 29.3695 176.195 29.3677H176.644C176.735 29.3695 176.799 29.3518 176.841 29.3164C176.882 29.2793 176.901 29.212 176.901 29.1129V24.1442C176.901 24.0451 176.882 23.9779 176.841 23.9407C176.799 23.9054 176.735 23.8877 176.644 23.8894H176.195Z" fill="#140A32"/>
<path id="Vector_5" d="M5.4187 26.1506H4.2091V24.144C4.2109 24.0449 4.19303 23.9777 4.15735 23.9405C4.11988 23.9051 4.05212 23.8874 3.95223 23.8892H3.50262C3.40273 23.8874 3.33492 23.9051 3.29744 23.9405C3.2618 23.9777 3.24396 24.0449 3.24573 24.144V29.1127C3.24573 29.2825 3.33135 29.3675 3.50262 29.3675H3.95223C4.05212 29.3692 4.11988 29.3516 4.15735 29.3162C4.19303 29.279 4.2109 29.2118 4.2091 29.1127V27.0318H5.4187V27.5095C5.42047 27.9324 5.51326 28.2934 5.69523 28.5942C5.87898 28.895 6.14481 29.1251 6.4945 29.2843C6.84235 29.4436 7.26519 29.525 7.76292 29.5267C8.26424 29.525 8.68885 29.4436 9.0403 29.2843C9.38999 29.1251 9.65759 28.895 9.84133 28.5942C10.0233 28.2934 10.1161 27.9324 10.1179 27.5095V25.7471C10.1161 25.3242 10.0233 24.9633 9.84133 24.6624C9.65759 24.3616 9.38999 24.1316 9.0403 23.9723C8.68885 23.8113 8.26424 23.7317 7.76292 23.7299C7.26519 23.7317 6.84235 23.8113 6.4945 23.9723C6.14481 24.1316 5.87898 24.3616 5.69523 24.6624C5.51326 24.9633 5.42047 25.3242 5.4187 25.7471V26.1506ZM9.15446 27.5095C9.15446 27.7502 9.09738 27.9572 8.98679 28.1306C8.87619 28.3023 8.71742 28.435 8.50867 28.527C8.30172 28.619 8.05372 28.6668 7.76292 28.6668C7.47391 28.6668 7.22595 28.619 7.019 28.527C6.81381 28.435 6.65681 28.3023 6.54801 28.1306C6.43739 27.9572 6.38387 27.7502 6.38207 27.5095V25.7471C6.38387 25.503 6.43739 25.2941 6.54801 25.1207C6.65681 24.9491 6.81381 24.8182 7.019 24.7262C7.22595 24.6359 7.47391 24.5899 7.76292 24.5899C8.20893 24.5917 8.55328 24.6925 8.79234 24.8942C9.03137 25.0942 9.15269 25.3791 9.15446 25.7471V27.5095ZM11.6807 24.0378C11.5683 24.0821 11.4809 24.1281 11.4202 24.1776C11.3596 24.2271 11.3185 24.2873 11.2954 24.3616C11.2722 24.4342 11.2615 24.5279 11.2632 24.643V31.4483C11.2615 31.5388 11.2811 31.6025 11.3185 31.6431C11.356 31.6837 11.4202 31.7031 11.5094 31.7031H11.959C12.0589 31.7049 12.1267 31.6874 12.1642 31.652C12.1999 31.6148 12.2177 31.5474 12.2159 31.4483V29.2401C12.4942 29.3356 12.7494 29.4064 12.9795 29.4542C13.2114 29.502 13.4201 29.5267 13.6075 29.5267C15.1275 29.5267 15.8875 28.8048 15.8875 27.3609V25.8639C15.8875 25.1526 15.7001 24.6182 15.3273 24.2625C14.9526 23.9069 14.3942 23.7299 13.6503 23.7299C13.2596 23.7299 12.901 23.7565 12.5727 23.8078C12.2463 23.8609 11.9483 23.937 11.6807 24.0378ZM14.9241 27.329C14.9241 27.7696 14.8099 28.1006 14.578 28.3235C14.3461 28.5447 13.9982 28.6562 13.5325 28.6562C13.3612 28.6562 13.1668 28.6331 12.9474 28.5854C12.7261 28.5394 12.4835 28.4703 12.2159 28.3801V24.9827C12.2141 24.9208 12.2231 24.8748 12.2445 24.8429C12.2641 24.8111 12.3086 24.7846 12.3765 24.7598C12.5584 24.7067 12.744 24.666 12.9313 24.6394C13.1204 24.6129 13.3131 24.6005 13.5111 24.6005C13.9821 24.6005 14.3353 24.7085 14.5709 24.9261C14.8063 25.1419 14.9241 25.4658 14.9241 25.8958V27.329ZM17.3004 23.8892C17.2006 23.8874 17.1327 23.9051 17.0953 23.9405C17.0596 23.9777 17.0418 24.0449 17.0435 24.144V29.1127C17.0435 29.2825 17.1292 29.3675 17.3004 29.3675H17.75C17.8571 29.3675 17.9427 29.325 18.0069 29.2401L20.3083 26.1293C20.4314 25.9542 20.5438 25.7861 20.6437 25.625C20.7454 25.464 20.8328 25.3065 20.9078 25.1526H20.9399C20.881 25.4286 20.8382 25.6834 20.8097 25.9187C20.7829 26.1523 20.7686 26.3682 20.7686 26.5646V29.1127C20.7668 29.2118 20.7847 29.279 20.8204 29.3162C20.8578 29.3516 20.9256 29.3692 21.0255 29.3675H21.4751C21.575 29.3692 21.6428 29.3516 21.6803 29.3162C21.716 29.279 21.7338 29.2118 21.732 29.1127V24.144C21.7338 24.0449 21.716 23.9777 21.6803 23.9405C21.6428 23.9051 21.575 23.8874 21.4751 23.8892H21.0255C20.972 23.8892 20.9238 23.8998 20.8828 23.921C20.8418 23.9423 20.8061 23.9741 20.7793 24.0166L18.4458 27.1592C18.2103 27.467 18.0176 27.7856 17.8678 28.1147H17.8357C17.8945 27.8864 17.9373 27.6582 17.9659 27.4282C17.9927 27.1999 18.0069 26.9681 18.0069 26.7345V24.144C18.0087 24.0449 17.9909 23.9777 17.9552 23.9405C17.9177 23.9051 17.8499 23.8874 17.75 23.8892H17.3004ZM27.887 28.4863V24.144C27.887 24.0449 27.8673 23.9777 27.8263 23.9405C27.7853 23.9051 27.721 23.8874 27.6301 23.8892H24.0976C24.0067 23.8874 23.9424 23.9051 23.9014 23.9405C23.8604 23.9777 23.8408 24.0449 23.8408 24.144V25.7471C23.8408 26.1877 23.8247 26.5646 23.7943 26.8796C23.7623 27.1928 23.7177 27.4458 23.6588 27.6369C23.5946 27.8334 23.5196 28.0014 23.4322 28.1412C23.3466 28.281 23.2467 28.396 23.1343 28.4863H22.8453C22.7561 28.4845 22.6918 28.504 22.6544 28.5429C22.6169 28.5836 22.5973 28.6526 22.599 28.7517V30.5884C22.5973 30.6787 22.6169 30.7424 22.6544 30.7831C22.6918 30.8237 22.7561 30.8434 22.8453 30.8434H23.2627C23.3537 30.8434 23.4215 30.8218 23.4643 30.7794C23.5089 30.7371 23.5303 30.6734 23.5303 30.5884V29.3675H27.7585V30.5884C27.7585 30.6787 27.7782 30.7424 27.8192 30.7831C27.8602 30.8237 27.9262 30.8434 28.0154 30.8434H28.4329C28.5328 30.8434 28.6006 30.8237 28.6381 30.7831C28.6737 30.7424 28.6916 30.6787 28.6898 30.5884V28.7517C28.6916 28.6526 28.6737 28.5836 28.6381 28.5429C28.6006 28.504 28.5328 28.4845 28.4329 28.4863H27.887ZM24.772 24.7704H26.9236V28.4863H24.2368C24.4135 28.2315 24.5473 27.8811 24.6364 27.4335C24.7274 26.9875 24.772 26.4426 24.772 25.8002V24.7704ZM29.7923 23.8892C29.6924 23.8874 29.6246 23.9051 29.5871 23.9405C29.5515 23.9777 29.5337 24.0449 29.5354 24.144V29.1127C29.5354 29.2825 29.6211 29.3675 29.7923 29.3675H30.2419C30.349 29.3675 30.4346 29.325 30.4988 29.2401L32.8001 26.1293C32.9233 25.9542 33.0356 25.7861 33.1358 25.625C33.2372 25.464 33.3247 25.3065 33.3998 25.1526H33.4317C33.3728 25.4286 33.33 25.6834 33.3014 25.9187C33.2748 26.1523 33.2605 26.3682 33.2605 26.5646V29.1127C33.2586 29.2118 33.2766 29.279 33.3123 29.3162C33.3498 29.3516 33.4175 29.3692 33.5174 29.3675H33.9669C34.0668 29.3692 34.1347 29.3516 34.1722 29.3162C34.2079 29.279 34.2256 29.2118 34.2237 29.1127V24.144C34.2256 24.0449 34.2079 23.9777 34.1722 23.9405C34.1347 23.9051 34.0668 23.8874 33.9669 23.8892H33.5174C33.464 23.8892 33.4156 23.8998 33.3747 23.921C33.3337 23.9423 33.298 23.9741 33.271 24.0166L30.9377 27.1592C30.7022 27.467 30.5095 27.7856 30.3597 28.1147H30.3276C30.3864 27.8864 30.4292 27.6582 30.4578 27.4282C30.4845 27.1999 30.4988 26.9681 30.4988 26.7345V24.144C30.5006 24.0449 30.4827 23.9777 30.4471 23.9405C30.4096 23.9051 30.3418 23.8874 30.2419 23.8892H29.7923ZM35.2301 25.4286C35.2282 26.1028 35.4032 26.6071 35.7581 26.9433C36.1133 27.2777 36.6609 27.4458 37.4029 27.4458C38.0345 27.4458 38.4841 27.3928 38.7518 27.2866V29.1127C38.7518 29.2118 38.7713 29.279 38.8126 29.3162C38.8535 29.3516 38.9178 29.3692 39.0087 29.3675H39.4582C39.5494 29.3692 39.6136 29.3516 39.6545 29.3162C39.6955 29.279 39.7153 29.2118 39.7153 29.1127V24.144C39.7153 24.0449 39.6955 23.9777 39.6545 23.9405C39.6136 23.9051 39.5494 23.8874 39.4582 23.8892H39.0087C38.9178 23.8874 38.8535 23.9051 38.8126 23.9405C38.7713 23.9777 38.7518 24.0449 38.7518 24.144V26.3948C38.4307 26.5222 38.024 26.5859 37.5314 26.5859C36.6323 26.5859 36.1828 26.193 36.1828 25.4074V24.144C36.1847 24.0538 36.1648 23.99 36.1276 23.9494C36.0901 23.9086 36.0258 23.8892 35.9365 23.8892H35.487C35.3871 23.8874 35.3191 23.9051 35.2819 23.9405C35.2462 23.9777 35.2282 24.0449 35.2301 24.144V25.4286ZM40.8498 27.3184C40.8498 27.7732 40.9373 28.166 41.112 28.4951C41.2869 28.8243 41.5491 29.0773 41.9006 29.256C42.2539 29.4347 42.6944 29.525 43.2262 29.5267C43.7827 29.5267 44.2539 29.4365 44.6374 29.2542C45.0227 29.0738 45.3189 28.7995 45.5277 28.4332C45.6453 28.2527 45.6134 28.1147 45.4312 28.0191L45.1421 27.8705C45.0531 27.8121 44.9765 27.7909 44.9138 27.8068C44.8496 27.8227 44.7872 27.8758 44.7249 27.9661C44.5803 28.2103 44.3824 28.3942 44.1342 28.5163C43.8845 28.6385 43.5848 28.6986 43.237 28.6986C42.7695 28.6969 42.4143 28.5871 42.1702 28.3677C41.9273 28.1501 41.8044 27.8351 41.8025 27.4246V26.915H45.2923C45.426 26.915 45.5259 26.8831 45.5901 26.8212C45.6562 26.7575 45.6881 26.6655 45.6881 26.5434V25.9276C45.6881 25.4853 45.5954 25.1013 45.4136 24.7722C45.2296 24.4448 44.9585 24.1882 44.5998 24.0078C44.2412 23.8255 43.797 23.7335 43.269 23.7299C42.7444 23.7317 42.302 23.8202 41.9415 23.9971C41.5832 24.1758 41.3118 24.4324 41.1281 24.7704C40.9426 25.1083 40.8498 25.5189 40.8498 26.0019V27.3184ZM44.7354 26.1824H41.8025V25.8746C41.8025 25.5932 41.8596 25.3543 41.9701 25.1543C42.0827 24.9562 42.2486 24.8022 42.4661 24.6978C42.6839 24.5917 42.9513 24.5368 43.269 24.5368C43.747 24.5386 44.1109 24.6554 44.3591 24.8872C44.6088 25.1172 44.7339 25.4463 44.7354 25.8746V26.1824ZM46.5766 27.3822C46.5766 27.8369 46.6641 28.2226 46.8372 28.5429C47.0103 28.8614 47.2687 29.1038 47.6149 29.2719C47.9611 29.44 48.3927 29.525 48.9101 29.5267C50.1197 29.5267 50.9011 29.0384 51.2545 28.0616C51.2864 27.9767 51.2864 27.9041 51.256 27.8457C51.2241 27.7856 51.1633 27.7378 51.0724 27.7006L50.6976 27.5945C50.5996 27.5555 50.523 27.5502 50.4712 27.575C50.4194 27.6015 50.3731 27.6634 50.3337 27.7643C50.232 28.0722 50.0663 28.304 49.8324 28.458C49.6007 28.6119 49.301 28.688 48.9315 28.688C48.4749 28.6845 48.1305 28.5748 47.8951 28.3553C47.6596 28.1359 47.5417 27.8262 47.5398 27.4246V25.8214C47.5417 25.4215 47.6596 25.1119 47.8951 24.896C48.1305 24.6801 48.4749 24.5704 48.9315 24.5686C49.301 24.5686 49.6007 24.643 49.8324 24.7916C50.0626 24.9402 50.2267 25.1632 50.3232 25.4605C50.3607 25.556 50.4088 25.618 50.4693 25.6445C50.5283 25.6728 50.6015 25.6675 50.6871 25.6303L51.0618 25.5136C51.1527 25.4817 51.2117 25.4357 51.2402 25.3773C51.2669 25.3171 51.265 25.2428 51.2331 25.1526C51.0832 24.6801 50.8208 24.3245 50.4445 24.0874C50.0697 23.8485 49.5793 23.7299 48.9743 23.7299C48.4426 23.7317 47.9987 23.8166 47.6435 23.983C47.2886 24.1511 47.0227 24.3935 46.8443 24.712C46.6659 25.0287 46.5766 25.4127 46.5766 25.8639V27.3822ZM55.9963 27.1804C55.884 26.9522 55.7555 26.7663 55.6128 26.6213C55.4683 26.4779 55.3113 26.3735 55.1401 26.3098L56.8528 24.1865C56.9332 24.0856 56.9598 24.0113 56.9332 23.9617C56.9062 23.9139 56.8258 23.8892 56.6921 23.8892H56.2854C56.1837 23.8874 56.1033 23.891 56.0462 23.898C55.9876 23.9051 55.9392 23.9228 55.9001 23.9511C55.8626 23.9777 55.8232 24.0219 55.7822 24.0803L54.1874 26.1293H54.0909H53.2455V24.144C53.2471 24.0449 53.2275 23.9777 53.1884 23.9405C53.1472 23.9051 53.0777 23.8874 52.9778 23.8892H52.5497C52.4498 23.8874 52.38 23.9051 52.339 23.9405C52.2999 23.9777 52.2801 24.0449 52.282 24.144V29.1021C52.2801 29.2011 52.2999 29.2702 52.339 29.3109C52.38 29.3498 52.4498 29.3692 52.5497 29.3675H52.9778C53.0777 29.3692 53.1472 29.3498 53.1884 29.3109C53.2275 29.2702 53.2471 29.2011 53.2455 29.1021V27.0105H54.2196C54.3853 27.0105 54.528 27.0282 54.6477 27.0672C54.7672 27.1061 54.8689 27.168 54.9545 27.2547C55.0402 27.3397 55.1168 27.4529 55.1829 27.5945L55.9215 29.1339C55.9519 29.1994 55.982 29.2507 56.0143 29.2843C56.0447 29.3179 56.0875 29.3409 56.139 29.3516C56.1927 29.3622 56.2659 29.3675 56.3602 29.3675H56.7777C56.9009 29.3675 56.9741 29.3445 56.9989 29.2985C57.0241 29.2507 57.0027 29.1746 56.9384 29.0702L55.9963 27.1804ZM58.1157 23.8892C58.0158 23.8874 57.9482 23.9051 57.9107 23.9405C57.875 23.9777 57.857 24.0449 57.8589 24.144V29.1127C57.8589 29.2825 57.9445 29.3675 58.1157 29.3675H58.5656C58.6726 29.3675 58.7582 29.325 58.8224 29.2401L61.1237 26.1293C61.2468 25.9542 61.3591 25.7861 61.459 25.625C61.5608 25.464 61.6483 25.3065 61.723 25.1526H61.7553C61.6964 25.4286 61.6535 25.6834 61.625 25.9187C61.5983 26.1523 61.5841 26.3682 61.5841 26.5646V29.1127C61.5822 29.2118 61.6002 29.279 61.6359 29.3162C61.6731 29.3516 61.741 29.3692 61.8409 29.3675H62.2904C62.3903 29.3692 62.4583 29.3516 62.4958 29.3162C62.5315 29.279 62.5492 29.2118 62.5473 29.1127V24.144C62.5492 24.0449 62.5315 23.9777 62.4958 23.9405C62.4583 23.9051 62.3903 23.8874 62.2904 23.8892H61.8409C61.7873 23.8892 61.7392 23.8998 61.6982 23.921C61.6573 23.9423 61.6216 23.9741 61.5946 24.0166L59.2611 27.1592C59.0256 27.467 58.833 27.7856 58.6831 28.1147H58.6512C58.7098 27.8864 58.7526 27.6582 58.7812 27.4282C58.8082 27.1999 58.8224 26.9681 58.8224 26.7345V24.144C58.824 24.0449 58.8063 23.9777 58.7706 23.9405C58.7331 23.9051 58.6655 23.8874 58.5656 23.8892H58.1157ZM63.6821 27.3184C63.6821 27.7732 63.7696 28.166 63.9443 28.4951C64.1192 28.8243 64.3814 29.0773 64.7328 29.256C65.0862 29.4347 65.5267 29.525 66.0584 29.5267C66.615 29.5267 67.0859 29.4365 67.4697 29.2542C67.855 29.0738 68.1512 28.7995 68.3597 28.4332C68.4776 28.2527 68.4453 28.1147 68.2635 28.0191L67.9744 27.8705C67.8854 27.8121 67.8084 27.7909 67.7461 27.8068C67.6818 27.8227 67.6195 27.8758 67.5571 27.9661C67.4126 28.2103 67.2143 28.3942 66.9665 28.5163C66.7167 28.6385 66.4171 28.6986 66.069 28.6986C65.6018 28.6969 65.2466 28.5871 65.0021 28.3677C64.7595 28.1501 64.6364 27.8351 64.6348 27.4246V26.915H68.1242C68.2582 26.915 68.3581 26.8831 68.4224 26.8212C68.4884 26.7575 68.5204 26.6655 68.5204 26.5434V25.9276C68.5204 25.4853 68.4276 25.1013 68.2455 24.7722C68.0619 24.4448 67.7907 24.1882 67.4321 24.0078C67.0735 23.8255 66.6293 23.7335 66.1012 23.7299C65.5767 23.7317 65.1343 23.8202 64.7738 23.9971C64.4152 24.1758 64.144 24.4324 63.9604 24.7704C63.7749 25.1083 63.6821 25.5189 63.6821 26.0019V27.3184ZM67.5677 26.1824H64.6348V25.8746C64.6348 25.5932 64.6919 25.3543 64.8023 25.1543C64.9149 24.9562 65.0806 24.8022 65.2984 24.6978C65.5162 24.5917 65.7836 24.5368 66.1012 24.5368C66.5793 24.5386 66.9432 24.6554 67.1914 24.8872C67.4411 25.1172 67.5658 25.4463 67.5677 25.8746V26.1824ZM75.7458 27.1804C75.6332 26.9522 75.5048 26.7663 75.3621 26.6213C75.2178 26.4779 75.0606 26.3735 74.8893 26.3098L76.6021 24.1865C76.6824 24.0856 76.7091 24.0113 76.6824 23.9617C76.6557 23.9139 76.5754 23.8892 76.4417 23.8892H76.0347C75.9332 23.8874 75.8529 23.891 75.7958 23.898C75.7368 23.9051 75.6888 23.9228 75.6494 23.9511C75.6118 23.9777 75.5727 24.0219 75.5318 24.0803L73.9366 26.1293H73.8404H72.9948V24.144C72.9966 24.0449 72.9768 23.9777 72.9377 23.9405C72.8967 23.9051 72.8269 23.8874 72.727 23.8892H72.2989C72.199 23.8874 72.1295 23.9051 72.0886 23.9405C72.0492 23.9777 72.0297 24.0449 72.0315 24.144V29.1021C72.0297 29.2011 72.0492 29.2702 72.0886 29.3109C72.1295 29.3498 72.199 29.3692 72.2989 29.3675H72.727C72.8269 29.3692 72.8967 29.3498 72.9377 29.3109C72.9768 29.2702 72.9966 29.2011 72.9948 29.1021V27.0105H73.9689C74.1348 27.0105 74.2775 27.0282 74.397 27.0672C74.5164 27.1061 74.6182 27.168 74.7038 27.2547C74.7894 27.3397 74.8664 27.4529 74.9321 27.5945L75.6708 29.1339C75.7012 29.1994 75.7316 29.2507 75.7635 29.2843C75.7939 29.3179 75.8367 29.3409 75.8885 29.3516C75.9419 29.3622 76.0151 29.3675 76.1097 29.3675H76.5273C76.6502 29.3675 76.7234 29.3445 76.7485 29.2985C76.7733 29.2507 76.7519 29.1746 76.6877 29.0702L75.7458 27.1804ZM77.4372 27.4989C77.4387 27.9218 77.5352 28.2846 77.726 28.5854C77.9168 28.888 78.1898 29.1198 78.5469 29.2825C78.9036 29.4436 79.3336 29.525 79.8349 29.5267C80.3468 29.525 80.782 29.4436 81.1388 29.2825C81.4974 29.1198 81.7704 28.888 81.9597 28.5854C82.147 28.2846 82.2413 27.9218 82.2432 27.4989V25.7684C82.2413 25.3419 82.147 24.9774 81.9597 24.6731C81.7704 24.3705 81.4974 24.1369 81.1388 23.9759C80.782 23.8131 80.3468 23.7317 79.8349 23.7299C79.3336 23.7317 78.9036 23.8131 78.5469 23.9759C78.1898 24.1369 77.9168 24.3705 77.726 24.6731C77.5352 24.9774 77.4387 25.3419 77.4372 25.7684V27.4989ZM81.2905 27.4989C81.2905 27.7431 81.2316 27.9537 81.1158 28.1271C80.9998 28.3005 80.8339 28.435 80.6161 28.527C80.4005 28.619 80.1399 28.6668 79.8349 28.6668C79.5334 28.6668 79.2765 28.619 79.0606 28.527C78.8447 28.435 78.6806 28.3005 78.5646 28.1271C78.4485 27.9537 78.3914 27.7431 78.3896 27.4989V25.7578C78.3914 25.5118 78.4485 25.303 78.5646 25.1296C78.6806 24.9544 78.8447 24.8217 79.0606 24.7297C79.2765 24.6377 79.5334 24.5899 79.8349 24.5899C80.1399 24.5899 80.4005 24.6377 80.6161 24.7297C80.8339 24.8217 80.9998 24.9544 81.1158 25.1296C81.2316 25.303 81.2905 25.5118 81.2905 25.7578V27.4989ZM87.3278 23.8892C87.2369 23.8874 87.1727 23.9051 87.1314 23.9405C87.0905 23.9777 87.0709 24.0449 87.0709 24.144V26.1293H84.3627V24.144C84.3645 24.0449 84.3465 23.9777 84.3109 23.9405C84.2736 23.9051 84.2057 23.8874 84.1058 23.8892H83.6563C83.5564 23.8874 83.4884 23.9051 83.4509 23.9405C83.4155 23.9777 83.3975 24.0449 83.3994 24.144V29.1127C83.3994 29.2825 83.485 29.3675 83.6563 29.3675H84.1058C84.2057 29.3692 84.2736 29.3516 84.3109 29.3162C84.3465 29.279 84.3645 29.2118 84.3627 29.1127V27.0105H87.0709V29.1127C87.0709 29.2118 87.0905 29.279 87.1314 29.3162C87.1727 29.3516 87.2369 29.3692 87.3278 29.3675H87.7773C87.8682 29.3692 87.9324 29.3516 87.9737 29.3162C88.0146 29.279 88.0342 29.2118 88.0342 29.1127V24.144C88.0342 24.0449 88.0146 23.9777 87.9737 23.9405C87.9324 23.9051 87.8682 23.8874 87.7773 23.8892H87.3278ZM89.1795 27.3822C89.1795 27.8369 89.267 28.2226 89.4401 28.5429C89.6132 28.8614 89.8719 29.1038 90.2178 29.2719C90.5641 29.44 90.9959 29.525 91.513 29.5267C92.7226 29.5267 93.5041 29.0384 93.8574 28.0616C93.8894 27.9767 93.8894 27.9041 93.8593 27.8457C93.827 27.7856 93.7665 27.7378 93.6753 27.7006L93.3009 27.5945C93.2025 27.5555 93.1259 27.5502 93.0741 27.575C93.0226 27.6015 92.9761 27.6634 92.937 27.7643C92.8352 28.0722 92.6693 28.304 92.4357 28.458C92.2036 28.6119 91.9039 28.688 91.5345 28.688C91.0778 28.6845 90.7334 28.5748 90.498 28.3553C90.2625 28.1359 90.1446 27.8262 90.1431 27.4246V25.8214C90.1446 25.4215 90.2625 25.1119 90.498 24.896C90.7334 24.6801 91.0778 24.5704 91.5345 24.5686C91.9039 24.5686 92.2036 24.643 92.4357 24.7916C92.6655 24.9402 92.8296 25.1632 92.9261 25.4605C92.9637 25.556 93.0117 25.618 93.0725 25.6445C93.1312 25.6728 93.2044 25.6675 93.29 25.6303L93.6648 25.5136C93.7557 25.4817 93.8146 25.4357 93.8431 25.3773C93.8698 25.3171 93.868 25.2428 93.836 25.1526C93.6862 24.6801 93.4237 24.3245 93.0474 24.0874C92.6727 23.8485 92.1822 23.7299 91.5773 23.7299C91.0458 23.7317 90.6016 23.8166 90.2464 23.983C89.8915 24.1511 89.6256 24.3935 89.4472 24.712C89.2689 25.0287 89.1795 25.4127 89.1795 25.8639V27.3822ZM98.8027 23.8892C98.7118 23.8874 98.6476 23.9051 98.6067 23.9405C98.5654 23.9777 98.5458 24.0449 98.5458 24.144V28.2315C98.3051 28.3058 98.0697 28.3624 97.841 28.3996C97.6111 28.4367 97.39 28.4544 97.1756 28.4544C96.7261 28.4544 96.3889 28.3482 96.1642 28.1377C95.9393 27.9254 95.827 27.6104 95.827 27.191V24.144C95.8289 24.0538 95.809 23.99 95.7718 23.9494C95.7343 23.9086 95.6701 23.8892 95.5807 23.8892H95.1312C95.0313 23.8874 94.9637 23.9051 94.9261 23.9405C94.8905 23.9777 94.8725 24.0449 94.8743 24.144V27.2229C94.8743 27.9236 95.0561 28.4491 95.4185 28.7995C95.7824 29.1498 96.3246 29.325 97.0472 29.325C97.2721 29.325 97.5094 29.3055 97.761 29.2684C98.0107 29.2312 98.2729 29.1764 98.5458 29.1021V29.6754C98.5458 30.1425 98.4317 30.4929 98.2015 30.7265C97.9732 30.96 97.6307 31.0769 97.1756 31.0769C96.8706 31.0769 96.6085 31.0185 96.3873 30.9C96.1677 30.7831 95.9874 30.6044 95.8484 30.3655C95.8075 30.3088 95.7662 30.2682 95.7287 30.2434C95.6896 30.2186 95.6468 30.2098 95.6003 30.215C95.554 30.2186 95.497 30.2381 95.4309 30.2699L95.1203 30.4398C95.0294 30.4876 94.9742 30.5442 94.9547 30.6097C94.9348 30.6751 94.9547 30.753 95.0133 30.8434C95.2221 31.2043 95.506 31.4751 95.868 31.6554C96.2285 31.836 96.6671 31.9262 97.1864 31.9262C98.728 31.9262 99.4986 31.1618 99.4986 29.6329V24.144C99.5004 24.0449 99.4824 23.9777 99.4467 23.9405C99.4092 23.9051 99.3416 23.8874 99.2417 23.8892H98.8027ZM101.639 23.8892C101.54 23.8874 101.472 23.9051 101.434 23.9405C101.399 23.9777 101.381 24.0449 101.383 24.144V25.8002C101.383 26.3523 101.356 26.8141 101.3 27.1857C101.243 27.5573 101.158 27.8386 101.04 28.0298C100.963 28.1554 100.894 28.2527 100.829 28.3235C100.765 28.3942 100.697 28.4544 100.626 28.5004C100.555 28.5464 100.467 28.5942 100.366 28.6455C100.307 28.6827 100.269 28.7252 100.253 28.7747C100.237 28.8225 100.242 28.8791 100.269 28.9428L100.494 29.3675C100.532 29.4365 100.574 29.4807 100.626 29.502C100.676 29.5232 100.735 29.5214 100.805 29.4949C100.949 29.4259 101.079 29.3533 101.195 29.2772C101.309 29.1994 101.418 29.1056 101.52 28.9941C101.623 28.8826 101.727 28.7429 101.832 28.5712C101.993 28.3164 102.112 27.9608 102.193 27.5078C102.273 27.0548 102.314 26.5062 102.314 25.8639V24.7704H104.38V29.1127C104.378 29.2118 104.396 29.279 104.431 29.3162C104.469 29.3516 104.537 29.3692 104.637 29.3675H105.075C105.166 29.3692 105.231 29.3516 105.272 29.3162C105.313 29.279 105.332 29.2118 105.332 29.1127V24.144C105.332 24.0449 105.313 23.9777 105.272 23.9405C105.231 23.9051 105.166 23.8874 105.075 23.8892H101.639ZM107.548 25.5454V24.144C107.55 24.0449 107.532 23.9777 107.496 23.9405C107.459 23.9051 107.391 23.8874 107.291 23.8892H106.842C106.742 23.8874 106.674 23.9051 106.637 23.9405C106.601 23.9777 106.583 24.0449 106.585 24.144V29.1127C106.583 29.2118 106.601 29.279 106.637 29.3162C106.674 29.3516 106.742 29.3692 106.842 29.3675H109.207C109.619 29.3657 109.973 29.2878 110.265 29.1357C110.558 28.9835 110.783 28.7641 110.94 28.4774C111.097 28.1908 111.175 27.8475 111.177 27.4458C111.175 27.0477 111.097 26.7079 110.94 26.4248C110.783 26.1417 110.558 25.9241 110.265 25.7737C109.973 25.6233 109.619 25.5472 109.207 25.5454H107.548ZM107.548 28.5181V26.4054H109.089C109.43 26.4089 109.694 26.5009 109.883 26.6832C110.073 26.8654 110.169 27.1185 110.171 27.4458C110.169 27.7838 110.073 28.0457 109.883 28.2333C109.694 28.4208 109.43 28.5146 109.089 28.5181H107.548ZM111.873 23.8892C111.773 23.8874 111.705 23.9051 111.667 23.9405C111.632 23.9777 111.614 24.0449 111.616 24.144V24.5156C111.614 24.6058 111.632 24.6695 111.667 24.7102C111.705 24.7509 111.773 24.7704 111.873 24.7704H113.435V29.1127C113.434 29.2118 113.452 29.279 113.487 29.3162C113.525 29.3516 113.592 29.3692 113.692 29.3675H114.142C114.231 29.3692 114.295 29.3516 114.333 29.3162C114.37 29.279 114.39 29.2118 114.388 29.1127V24.7704H115.951C116.042 24.7704 116.106 24.7509 116.147 24.7102C116.188 24.6695 116.208 24.6058 116.208 24.5156V24.144C116.208 24.0449 116.188 23.9777 116.147 23.9405C116.106 23.9051 116.042 23.8874 115.951 23.8892H111.873ZM116.914 24.8447C116.871 24.9296 116.861 25.0022 116.884 25.0606C116.906 25.1207 116.963 25.1685 117.054 25.2057L117.386 25.3543C117.451 25.3791 117.503 25.3914 117.539 25.3914C117.574 25.3914 117.607 25.3791 117.635 25.3525C117.664 25.3242 117.698 25.2835 117.739 25.2269C117.873 25.0093 118.049 24.8465 118.27 24.7403C118.49 24.6324 118.755 24.5793 119.066 24.5793C119.378 24.5793 119.628 24.6288 119.815 24.7244C120.003 24.8217 120.136 24.9633 120.218 25.1508C120.3 25.3402 120.342 25.5702 120.34 25.8427V26.2461C120.126 26.2196 119.917 26.2001 119.713 26.1895C119.51 26.1771 119.312 26.1718 119.119 26.1718C118.547 26.17 118.087 26.2231 117.735 26.3311C117.384 26.439 117.128 26.6142 116.968 26.8584C116.809 27.1043 116.731 27.4299 116.732 27.8386C116.732 28.1306 116.775 28.3836 116.859 28.596C116.945 28.8083 117.07 28.98 117.236 29.1127C117.401 29.2507 117.639 29.3533 117.947 29.4223C118.256 29.4914 118.632 29.5267 119.077 29.5267C119.478 29.5267 119.831 29.5037 120.138 29.4559C120.443 29.4099 120.704 29.3409 120.918 29.2507C121.018 29.21 121.094 29.1658 121.152 29.1197C121.207 29.0738 121.246 29.0136 121.269 28.9393C121.293 28.865 121.303 28.7676 121.303 28.6455V25.8746C121.305 25.4304 121.234 25.0482 121.087 24.7279C120.941 24.4094 120.706 24.1634 120.381 23.99C120.054 23.8184 119.624 23.7317 119.087 23.7299C118.558 23.7299 118.111 23.8219 117.748 24.0078C117.386 24.1935 117.107 24.4731 116.914 24.8447ZM120.34 28.3695C120.34 28.4279 120.327 28.4757 120.3 28.5146C120.274 28.5518 120.233 28.5818 120.179 28.6031C119.933 28.688 119.537 28.7305 118.991 28.7305C118.661 28.7305 118.402 28.6986 118.213 28.6331C118.024 28.5694 117.888 28.4703 117.81 28.3394C117.731 28.2067 117.694 28.0404 117.696 27.8386C117.694 27.6298 117.735 27.46 117.819 27.329C117.903 27.1981 118.04 27.1008 118.233 27.0388C118.427 26.9769 118.686 26.9468 119.012 26.9468C119.168 26.9468 119.357 26.9539 119.58 26.9698C119.803 26.984 120.056 27.0052 120.34 27.0318V28.3695ZM127.073 28.4863V24.144C127.073 24.0449 127.053 23.9777 127.012 23.9405C126.971 23.9051 126.907 23.8874 126.816 23.8892H126.366C126.275 23.8874 126.211 23.9051 126.17 23.9405C126.129 23.9777 126.109 24.0449 126.109 24.144V28.4863H123.508V24.144C123.51 24.0449 123.492 23.9777 123.457 23.9405C123.419 23.9051 123.351 23.8874 123.251 23.8892H122.802C122.63 23.8892 122.545 23.9741 122.545 24.144V29.1127C122.543 29.2118 122.561 29.279 122.597 29.3162C122.634 29.3516 122.702 29.3692 122.802 29.3675H126.944V30.5884C126.944 30.6787 126.964 30.7424 127.005 30.7831C127.046 30.8237 127.112 30.8434 127.201 30.8434H127.619C127.719 30.8434 127.786 30.8237 127.824 30.7831C127.86 30.7424 127.877 30.6787 127.875 30.5884V28.7517C127.877 28.6526 127.86 28.5836 127.824 28.5429C127.786 28.504 127.719 28.4845 127.619 28.4863H127.073Z" fill="#140A32"/>
<path id="Vector_6" d="M128.978 23.8894C128.878 23.8877 128.811 23.9054 128.773 23.9407C128.737 23.9779 128.719 24.0451 128.721 24.1442V29.1129C128.721 29.2828 128.807 29.3677 128.978 29.3677H129.428C129.535 29.3677 129.62 29.3253 129.684 29.2403L131.986 26.1296C132.109 25.9544 132.221 25.7863 132.321 25.6253C132.423 25.4643 132.511 25.3068 132.585 25.1528H132.618C132.559 25.4289 132.516 25.6837 132.487 25.919C132.461 26.1526 132.446 26.3685 132.446 26.5649V29.1129C132.445 29.212 132.462 29.2793 132.498 29.3164C132.535 29.3518 132.603 29.3695 132.703 29.3677H133.153C133.253 29.3695 133.321 29.3518 133.358 29.3164C133.393 29.2793 133.411 29.212 133.41 29.1129V24.1442C133.411 24.0451 133.393 23.9779 133.358 23.9407C133.321 23.9054 133.253 23.8877 133.153 23.8894H132.703C132.65 23.8894 132.601 23.9 132.561 23.9213C132.52 23.9425 132.484 23.9744 132.457 24.0168L130.123 27.1594C129.888 27.4673 129.695 27.7858 129.545 28.115H129.513C129.572 27.8867 129.615 27.6584 129.643 27.4284C129.67 27.2001 129.684 26.9683 129.684 26.7347V24.1442C129.686 24.0451 129.669 23.9779 129.633 23.9407C129.595 23.9054 129.527 23.8877 129.428 23.8894H128.978ZM134.994 23.8894C134.894 23.8877 134.826 23.9054 134.789 23.9407C134.753 23.9779 134.735 24.0451 134.737 24.1442V29.1129C134.737 29.2828 134.823 29.3677 134.994 29.3677H135.443C135.55 29.3677 135.636 29.3253 135.7 29.2403L138.002 26.1296C138.125 25.9544 138.237 25.7863 138.337 25.6253C138.439 25.4643 138.526 25.3068 138.601 25.1528H138.634C138.575 25.4289 138.532 25.6837 138.503 25.919C138.476 26.1526 138.462 26.3685 138.462 26.5649V29.1129C138.46 29.212 138.478 29.2793 138.514 29.3164C138.551 29.3518 138.619 29.3695 138.719 29.3677H139.169C139.269 29.3695 139.336 29.3518 139.374 29.3164C139.409 29.2793 139.427 29.212 139.426 29.1129V24.1442C139.427 24.0451 139.409 23.9779 139.374 23.9407C139.336 23.9054 139.269 23.8877 139.169 23.8894H138.719C138.665 23.8894 138.617 23.9 138.576 23.9213C138.535 23.9425 138.499 23.9744 138.473 24.0168L136.139 27.1594C135.904 27.4673 135.711 27.7858 135.561 28.115H135.529C135.588 27.8867 135.631 27.6584 135.659 27.4284C135.686 27.2001 135.7 26.9683 135.7 26.7347V24.1442C135.702 24.0451 135.684 23.9779 135.649 23.9407C135.611 23.9054 135.543 23.8877 135.443 23.8894H134.994ZM143.022 27.4991C143.024 27.9221 143.12 28.2848 143.311 28.5856C143.502 28.8882 143.775 29.12 144.132 29.2828C144.489 29.4438 144.919 29.5252 145.42 29.527C145.932 29.5252 146.367 29.4438 146.724 29.2828C147.083 29.12 147.356 28.8882 147.545 28.5856C147.732 28.2848 147.826 27.9221 147.828 27.4991V25.7686C147.826 25.3422 147.732 24.9776 147.545 24.6733C147.356 24.3707 147.083 24.1371 146.724 23.9761C146.367 23.8133 145.932 23.7319 145.42 23.7302C144.919 23.7319 144.489 23.8133 144.132 23.9761C143.775 24.1371 143.502 24.3707 143.311 24.6733C143.12 24.9776 143.024 25.3422 143.022 25.7686V27.4991ZM146.876 27.4991C146.876 27.7434 146.817 27.9539 146.701 28.1273C146.585 28.3007 146.419 28.4352 146.201 28.5272C145.986 28.6192 145.725 28.667 145.42 28.667C145.118 28.667 144.862 28.6192 144.646 28.5272C144.43 28.4352 144.266 28.3007 144.15 28.1273C144.034 27.9539 143.977 27.7434 143.975 27.4991V25.758C143.977 25.512 144.034 25.3032 144.15 25.1298C144.266 24.9546 144.43 24.8219 144.646 24.7299C144.862 24.6379 145.118 24.5901 145.42 24.5901C145.725 24.5901 145.986 24.6379 146.201 24.7299C146.419 24.8219 146.585 24.9546 146.701 25.1298C146.817 25.3032 146.876 25.512 146.876 25.758V27.4991ZM152.913 23.8894C152.822 23.8877 152.758 23.9054 152.717 23.9407C152.676 23.9779 152.656 24.0451 152.656 24.1442V26.1296H149.948V24.1442C149.95 24.0451 149.932 23.9779 149.896 23.9407C149.859 23.9054 149.791 23.8877 149.691 23.8894H149.241C149.141 23.8877 149.074 23.9054 149.036 23.9407C149 23.9779 148.983 24.0451 148.984 24.1442V29.1129C148.984 29.2828 149.07 29.3677 149.241 29.3677H149.691C149.791 29.3695 149.859 29.3518 149.896 29.3164C149.932 29.2793 149.95 29.212 149.948 29.1129V27.0108H152.656V29.1129C152.656 29.212 152.676 29.2793 152.717 29.3164C152.758 29.3518 152.822 29.3695 152.913 29.3677H153.362C153.453 29.3695 153.518 29.3518 153.559 29.3164C153.6 29.2793 153.619 29.212 153.619 29.1129V24.1442C153.619 24.0451 153.6 23.9779 153.559 23.9407C153.518 23.9054 153.453 23.8877 153.362 23.8894H152.913ZM155.782 23.8894C155.682 23.8877 155.614 23.9054 155.576 23.9407C155.541 23.9779 155.523 24.0451 155.525 24.1442V25.8005C155.525 26.3526 155.498 26.8144 155.443 27.186C155.386 27.5575 155.3 27.8389 155.182 28.03C155.106 28.1556 155.036 28.2529 154.972 28.3237C154.907 28.3945 154.84 28.4547 154.768 28.5007C154.697 28.5467 154.609 28.5945 154.508 28.6458C154.449 28.6829 154.412 28.7254 154.395 28.775C154.379 28.8227 154.385 28.8794 154.412 28.943L154.636 29.3677C154.674 29.4367 154.717 29.481 154.768 29.5022C154.818 29.5234 154.877 29.5217 154.947 29.4951C155.091 29.4261 155.222 29.3536 155.337 29.2775C155.451 29.1996 155.56 29.1058 155.662 28.9943C155.765 28.8829 155.869 28.7431 155.974 28.5714C156.135 28.3166 156.254 27.961 156.335 27.508C156.415 27.055 156.456 26.5065 156.456 25.8642V24.7706H158.522V29.1129C158.52 29.212 158.538 29.2793 158.574 29.3164C158.611 29.3518 158.679 29.3695 158.779 29.3677H159.218C159.309 29.3695 159.373 29.3518 159.414 29.3164C159.455 29.2793 159.474 29.212 159.474 29.1129V24.1442C159.474 24.0451 159.455 23.9779 159.414 23.9407C159.373 23.9054 159.309 23.8877 159.218 23.8894H155.782ZM160.62 24.845C160.577 24.9298 160.566 25.0024 160.59 25.0608C160.611 25.121 160.668 25.1687 160.759 25.2059L161.091 25.3546C161.157 25.3793 161.209 25.3917 161.244 25.3917C161.28 25.3917 161.312 25.3793 161.341 25.3528C161.369 25.3245 161.403 25.2838 161.444 25.2271C161.578 25.0095 161.755 24.8467 161.976 24.7406C162.195 24.6326 162.461 24.5795 162.772 24.5795C163.084 24.5795 163.333 24.629 163.521 24.7246C163.708 24.8219 163.842 24.9635 163.924 25.151C164.006 25.3404 164.047 25.5704 164.045 25.8429V26.2464C163.831 26.2198 163.622 26.2004 163.419 26.1898C163.216 26.1774 163.018 26.172 162.825 26.172C162.252 26.1703 161.792 26.2234 161.441 26.3313C161.089 26.4393 160.834 26.6144 160.673 26.8586C160.515 27.1046 160.436 27.4301 160.438 27.8389C160.438 28.1309 160.481 28.3839 160.565 28.5962C160.65 28.8086 160.775 28.9802 160.941 29.1129C161.107 29.2509 161.344 29.3536 161.653 29.4226C161.962 29.4916 162.338 29.527 162.782 29.527C163.183 29.527 163.537 29.504 163.844 29.4562C164.149 29.4102 164.409 29.3412 164.623 29.2509C164.723 29.2102 164.8 29.166 164.857 29.12C164.912 29.074 164.951 29.0138 164.975 28.9395C164.998 28.8652 165.009 28.7679 165.009 28.6458V25.8748C165.01 25.4306 164.939 25.0484 164.793 24.7282C164.647 24.4097 164.411 24.1637 164.086 23.9903C163.76 23.8186 163.33 23.7319 162.793 23.7302C162.263 23.7302 161.817 23.8222 161.453 24.008C161.091 24.1938 160.813 24.4734 160.62 24.845ZM164.045 28.3697C164.045 28.4281 164.033 28.4759 164.006 28.5148C163.979 28.552 163.938 28.5821 163.885 28.6033C163.639 28.6882 163.242 28.7307 162.696 28.7307C162.366 28.7307 162.108 28.6989 161.919 28.6334C161.729 28.5697 161.594 28.4706 161.515 28.3397C161.437 28.2069 161.4 28.0406 161.401 27.8389C161.4 27.6301 161.441 27.4602 161.524 27.3293C161.608 27.1983 161.746 27.101 161.938 27.0391C162.133 26.9772 162.392 26.9471 162.718 26.9471C162.873 26.9471 163.062 26.9542 163.285 26.9701C163.508 26.9842 163.762 27.0055 164.045 27.032V28.3697ZM170.286 22.0102C170.302 21.9571 170.302 21.9111 170.284 21.874C170.264 21.835 170.227 21.8032 170.168 21.7766L169.793 21.6386C169.686 21.6068 169.611 21.6386 169.569 21.7342C169.43 22.2014 169.119 22.4349 168.637 22.4349C168.397 22.4349 168.2 22.3765 168.049 22.2597C167.897 22.143 167.786 21.9678 167.717 21.7342C167.695 21.6864 167.663 21.6563 167.621 21.644C167.578 21.6316 167.524 21.6334 167.46 21.6493L167.128 21.7766C167.069 21.7926 167.032 21.8209 167.012 21.8616C166.994 21.9023 166.994 21.9518 167.01 22.0102C167.134 22.3871 167.33 22.6685 167.599 22.856C167.869 23.0418 168.215 23.1356 168.637 23.1356C169.066 23.1356 169.417 23.0418 169.69 22.856C169.965 22.6685 170.163 22.3871 170.286 22.0102ZM166.507 23.8894C166.407 23.8877 166.339 23.9054 166.302 23.9407C166.267 23.9779 166.249 24.0451 166.25 24.1442V29.1129C166.25 29.2828 166.336 29.3677 166.507 29.3677H166.957C167.064 29.3677 167.149 29.3253 167.214 29.2403L169.515 26.1296C169.638 25.9544 169.751 25.7863 169.851 25.6253C169.952 25.4643 170.04 25.3068 170.115 25.1528H170.147C170.088 25.4289 170.045 25.6837 170.017 25.919C169.99 26.1526 169.976 26.3685 169.976 26.5649V29.1129C169.974 29.212 169.991 29.2793 170.027 29.3164C170.065 29.3518 170.133 29.3695 170.232 29.3677H170.682C170.782 29.3695 170.85 29.3518 170.887 29.3164C170.923 29.2793 170.941 29.212 170.939 29.1129V24.1442C170.941 24.0451 170.923 23.9779 170.887 23.9407C170.85 23.9054 170.782 23.8877 170.682 23.8894H170.232C170.179 23.8894 170.131 23.9 170.09 23.9213C170.048 23.9425 170.013 23.9744 169.986 24.0168L167.653 27.1594C167.417 27.4673 167.225 27.7858 167.075 28.115H167.042C167.101 27.8867 167.144 27.6584 167.173 27.4284C167.199 27.2001 167.214 26.9683 167.214 26.7347V24.1442C167.216 24.0451 167.198 23.9779 167.162 23.9407C167.125 23.9054 167.057 23.8877 166.957 23.8894H166.507ZM176.195 23.8894C176.104 23.8877 176.04 23.9054 175.998 23.9407C175.957 23.9779 175.938 24.0451 175.938 24.1442V26.1296H173.23V24.1442C173.231 24.0451 173.213 23.9779 173.178 23.9407C173.14 23.9054 173.073 23.8877 172.973 23.8894H172.523C172.423 23.8877 172.355 23.9054 172.318 23.9407C172.282 23.9779 172.264 24.0451 172.266 24.1442V29.1129C172.266 29.2828 172.352 29.3677 172.523 29.3677H172.973C173.073 29.3695 173.14 29.3518 173.178 29.3164C173.213 29.2793 173.231 29.212 173.23 29.1129V27.0108H175.938V29.1129C175.938 29.212 175.957 29.2793 175.998 29.3164C176.04 29.3518 176.104 29.3695 176.195 29.3677H176.644C176.735 29.3695 176.799 29.3518 176.841 29.3164C176.882 29.2793 176.901 29.212 176.901 29.1129V24.1442C176.901 24.0451 176.882 23.9779 176.841 23.9407C176.799 23.9054 176.735 23.8877 176.644 23.8894H176.195Z" fill="#140A32"/>
<path id="Vector_7" fill-rule="evenodd" clip-rule="evenodd" d="M10.7427 2.18704C10.1379 0.881917 9.291 0.229419 8.20223 0.159514C6.65365 0.159452 5.10519 0.159483 3.70183 0.159544C2.7099 1.32476 1.47593 2.86286 0 4.77382C1.96976 4.75923 4.10534 4.62625 6.28696 4.86172C8.03744 5.05068 9.48306 5.64332 10.525 6.80132C10.6701 4.96028 10.6943 3.44542 10.7427 2.18704Z" fill="#115B82"/>
<path id="Vector_8" fill-rule="evenodd" clip-rule="evenodd" d="M10.7427 2.18704C10.1379 0.881917 9.291 0.229419 8.20223 0.159514C6.65365 0.159452 5.10519 0.159483 3.70183 0.159544C2.7099 1.32476 1.47593 2.86286 0 4.77382C1.96976 4.75923 4.10534 4.62625 6.28696 4.86172C8.03744 5.05068 9.48306 5.64332 10.525 6.80132C10.6701 4.96028 10.6943 3.44542 10.7427 2.18704Z" fill="#115B82"/>
<path id="Vector_9" fill-rule="evenodd" clip-rule="evenodd" d="M4.49316 5.66545V20.2688H10.5059V8.15569C8.92936 6.27594 6.87641 5.76354 4.49316 5.66545Z" fill="#115B82"/>
<path id="Vector_10" fill-rule="evenodd" clip-rule="evenodd" d="M4.49316 5.66545V20.2688H10.5059V8.15569C8.92936 6.27594 6.87641 5.76354 4.49316 5.66545Z" fill="#115B82"/>
<path id="Vector_11" fill-rule="evenodd" clip-rule="evenodd" d="M24.6565 20.0713C21.9488 20.297 18.902 20.6254 16.3735 19.3969C14.945 18.703 13.8103 17.7215 12.9826 16.4527C11.2385 13.7787 10.9462 7.6856 12.7841 4.36938C13.263 3.50514 13.9397 2.84485 14.7371 2.26862C16.7229 0.832954 19.394 0.0766434 22.7501 0C19.1864 2.80442 17.671 4.87175 17.4066 8.01C17.2605 9.74514 17.145 13.0457 18.6203 14.2275C18.9977 14.5297 19.4347 14.7864 19.9292 14.9589C22.4122 15.8252 26.3962 15.359 28.6891 15.1262C27.1984 17.5986 25.6586 19.2956 24.6565 20.0713Z" fill="#115B82"/>
<path id="Vector_12" fill-rule="evenodd" clip-rule="evenodd" d="M24.6565 20.0713C21.9488 20.297 18.902 20.6254 16.3735 19.3969C14.945 18.703 13.8103 17.7215 12.9826 16.4527C11.2385 13.7787 10.9462 7.6856 12.7841 4.36938C13.263 3.50514 13.9397 2.84485 14.7371 2.26862C16.7229 0.832954 19.394 0.0766434 22.7501 0C19.1864 2.80442 17.671 4.87175 17.4066 8.01C17.2605 9.74514 17.145 13.0457 18.6203 14.2275C18.9977 14.5297 19.4347 14.7864 19.9292 14.9589C22.4122 15.8252 26.3962 15.359 28.6891 15.1262C27.1984 17.5986 25.6586 19.2956 24.6565 20.0713Z" fill="#115B82"/>
<path id="Vector_13" fill-rule="evenodd" clip-rule="evenodd" d="M43.5901 0.32444C46.2978 0.0986958 49.3445 -0.229692 51.8731 0.998785C53.3017 1.69276 54.4362 2.67417 55.2639 3.94299C57.008 6.61699 57.3005 12.7101 55.4624 16.0263C54.9835 16.8906 54.3068 17.5509 53.5096 18.1271C51.5238 19.5628 48.8525 20.3191 45.4964 20.3957C49.0603 17.5913 50.5755 15.524 50.8401 12.3857C50.9862 10.6506 51.1016 7.35 49.6262 6.16825C49.2489 5.866 48.8118 5.60935 48.3173 5.4368C45.8343 4.57055 41.8504 5.03677 39.5575 5.26948C41.0481 2.79709 42.5881 1.10011 43.5901 0.32444Z" fill="#115B82"/>
<path id="Vector_14" fill-rule="evenodd" clip-rule="evenodd" d="M43.5901 0.32444C46.2978 0.0986958 49.3445 -0.229692 51.8731 0.998785C53.3017 1.69276 54.4362 2.67417 55.2639 3.94299C57.008 6.61699 57.3005 12.7101 55.4624 16.0263C54.9835 16.8906 54.3068 17.5509 53.5096 18.1271C51.5238 19.5628 48.8525 20.3191 45.4964 20.3957C49.0603 17.5913 50.5755 15.524 50.8401 12.3857C50.9862 10.6506 51.1016 7.35 49.6262 6.16825C49.2489 5.866 48.8118 5.60935 48.3173 5.4368C45.8343 4.57055 41.8504 5.03677 39.5575 5.26948C41.0481 2.79709 42.5881 1.10011 43.5901 0.32444Z" fill="#115B82"/>
<path id="Vector_15" fill-rule="evenodd" clip-rule="evenodd" d="M25.9028 20.2168C28.7503 17.859 30.5349 15.2491 30.9573 11.7874C31.082 10.7657 31.0653 9.73209 31.1643 8.70711C31.3575 6.70569 31.8526 4.68935 33.3731 3.16446C35.2254 1.30652 37.9901 0.372643 42.1068 0.0727167C38.7108 3.09249 37.4662 5.55809 36.9714 9.38803C36.8513 10.3188 36.8287 11.2623 36.6748 12.1877C35.8086 17.3917 31.4981 20.4427 25.9028 20.2168Z" fill="#115B82"/>
<path id="Vector_16" fill-rule="evenodd" clip-rule="evenodd" d="M25.9028 20.2168C28.7503 17.859 30.5349 15.2491 30.9573 11.7874C31.082 10.7657 31.0653 9.73209 31.1643 8.70711C31.3575 6.70569 31.8526 4.68935 33.3731 3.16446C35.2254 1.30652 37.9901 0.372643 42.1068 0.0727167C38.7108 3.09249 37.4662 5.55809 36.9714 9.38803C36.8513 10.3188 36.8287 11.2623 36.6748 12.1877C35.8086 17.3917 31.4981 20.4427 25.9028 20.2168Z" fill="#115B82"/>
<path id="Vector_17" fill-rule="evenodd" clip-rule="evenodd" d="M30.1013 6.63905C29.2011 5.91938 28.4098 5.56886 27.5516 5.35428C25.0995 4.74108 22.2199 5.09757 19.5768 5.17871C21.0491 2.60062 22.576 0.97804 24.1029 0.148717C25.3767 0.104749 26.5762 0.107673 27.7139 0.169701C29.033 0.241606 30.1039 0.390277 31.3272 0.891428C32.1247 1.21828 32.6251 1.52959 32.828 1.82539C31.3191 3.24966 30.4104 4.87225 30.1013 6.63905Z" fill="#115B82"/>
<path id="Vector_18" fill-rule="evenodd" clip-rule="evenodd" d="M30.1013 6.63905C29.2011 5.91938 28.4098 5.56886 27.5516 5.35428C25.0995 4.74108 22.2199 5.09757 19.5768 5.17871C21.0491 2.60062 22.576 0.97804 24.1029 0.148717C25.3767 0.104749 26.5762 0.107673 27.7139 0.169701C29.033 0.241606 30.1039 0.390277 31.3272 0.891428C32.1247 1.21828 32.6251 1.52959 32.828 1.82539C31.3191 3.24966 30.4104 4.87225 30.1013 6.63905Z" fill="#115B82"/>
<path id="Vector_19" fill-rule="evenodd" clip-rule="evenodd" d="M37.4715 13.7566C38.3959 14.4763 39.2084 14.8268 40.0895 15.0414C42.6073 15.6546 45.564 15.2981 48.2779 15.217C46.7661 17.7951 45.1983 19.4177 43.6307 20.247C42.3228 20.291 41.0909 20.288 39.9229 20.226C38.5684 20.1541 37.469 20.0054 36.2129 19.5042C35.3939 19.1774 34.8802 18.8661 34.672 18.5703C36.221 17.1461 37.1541 15.5234 37.4715 13.7566Z" fill="#115B82"/>
<path id="Vector_20" fill-rule="evenodd" clip-rule="evenodd" d="M37.4715 13.7566C38.3959 14.4763 39.2084 14.8268 40.0895 15.0414C42.6073 15.6546 45.564 15.2981 48.2779 15.217C46.7661 17.7951 45.1983 19.4177 43.6307 20.247C42.3228 20.291 41.0909 20.288 39.9229 20.226C38.5684 20.1541 37.469 20.0054 36.2129 19.5042C35.3939 19.1774 34.8802 18.8661 34.672 18.5703C36.221 17.1461 37.1541 15.5234 37.4715 13.7566Z" fill="#115B82"/>
</g>
<defs>
<clipPath id="clip0_54_891">
<rect width="179" height="32" fill="white"/>
</clipPath>
</defs>
</svg>
