<svg width="110" height="110" viewBox="0 0 110 110" fill="none" xmlns="http://www.w3.org/2000/svg">
<rect width="110" height="110" rx="55" fill="#EBF2F0"/>
<path d="M38.3214 71.758V38.242C38.3214 36.9261 39.3881 35.8594 40.704 35.8594H71.6785V69.3753H40.704C39.3881 69.3753 38.3214 70.4421 38.3214 71.758ZM38.3214 71.758C38.3214 73.0739 39.3881 74.1406 40.704 74.1406H71.6785M69.2959 69.3753V74.1406M43.0867 35.8594V69.3753" stroke="#33836E" stroke-width="1.71875" stroke-miterlimit="10" stroke-linecap="round" stroke-linejoin="round"/>
<path d="M57.3826 45.4694V62.148M47.852 47.8521H66.9132M52.6173 62.148H62.1479M50.2346 47.8521L47.852 52.6174C47.852 53.9333 48.9187 55.0001 50.2346 55.0001C51.5506 55.0001 52.6173 53.9333 52.6173 52.6174L50.2346 47.8521ZM64.5306 47.8521L66.9132 52.6174C66.9132 53.9333 65.8465 55.0001 64.5306 55.0001C63.2146 55.0001 62.1479 53.9333 62.1479 52.6174L64.5306 47.8521Z" stroke="#33836E" stroke-width="1.71875" stroke-miterlimit="10" stroke-linecap="round" stroke-linejoin="round"/>
</svg>
