<svg width="110" height="110" viewBox="0 0 110 110" fill="none" xmlns="http://www.w3.org/2000/svg">
<rect width="110" height="110" rx="55" fill="#EBF2F0"/>
<g clip-path="url(#clip0_12_551)">
<path d="M63.1197 75C49.2187 74.8386 31.8095 56.9843 35.5497 42.9269C36.3073 38.8057 43.6137 31.6959 48.3645 36.7434C50.2533 38.7445 52.6859 40.3029 52.6233 43.3973C52.637 45.3494 51.7046 46.8588 50.2927 48.123C48.6939 49.7218 48.546 52.2648 49.9486 54.0382C51.6756 56.2238 53.7415 58.2894 55.9273 60.0171C57.7008 61.4195 60.2437 61.2717 61.8426 59.6728L62.4897 59.0259C63.5753 57.9403 65.0237 57.3423 66.5684 57.3423C69.659 57.2777 71.2269 59.717 73.2224 61.6011C78.2623 66.3946 71.1777 73.6305 67.0389 74.4159C65.8315 74.8059 64.5174 75 63.1197 75ZM44.4255 36.7176C41.5441 36.6045 37.7014 40.7863 37.2365 43.2593C34.209 54.7836 46.2611 68.0438 56.6296 71.9673C61.6773 73.7724 66.3065 74.028 70.118 70.8226C72.6587 68.6474 74.6198 65.4226 72.0073 62.8163L69.4319 60.2411C67.9333 58.6776 65.2031 58.678 63.7048 60.2412L63.0576 60.8882C60.8424 63.1035 57.3186 63.3085 54.8612 61.365C53.7166 60.4596 52.6028 59.4671 51.5507 58.415C50.4981 57.3624 49.5056 56.2485 48.6007 55.1043C46.6572 52.6471 46.8622 49.1235 49.0775 46.908L49.7246 46.2609C51.2881 44.7636 51.2876 42.0313 49.7246 40.5338L47.1492 37.9584C46.32 37.1292 45.4206 36.7176 44.4255 36.7176Z" fill="#33836E"/>
<path d="M67.1924 50.9197C66.796 50.9197 66.4396 50.6438 66.3531 50.2405C66.0054 48.6143 65.1941 47.1235 64.0174 45.9483C62.8255 44.7543 61.3089 43.937 59.6562 43.598C59.1914 43.5022 58.8923 43.0478 58.9879 42.5831C59.0838 42.1183 59.5381 41.8192 60.0028 41.9149C61.9898 42.3242 63.7982 43.2987 65.2325 44.7331C66.6436 46.1424 67.6163 47.93 68.0333 49.8802C68.1328 50.3441 67.8374 50.801 67.3734 50.9005C67.3127 50.9134 67.2521 50.9197 67.1924 50.9197Z" fill="#33836E"/>
<path d="M72.0463 55.7471C71.9903 55.7471 71.9334 55.7416 71.8763 55.7301C71.4111 55.6367 71.1097 55.1838 71.2031 54.7186C72.0981 50.2615 70.7132 45.6815 67.4987 42.4669C64.2783 39.2465 59.6907 37.8631 55.2269 38.7666C54.7616 38.8612 54.3084 38.56 54.2143 38.0949C54.1202 37.6298 54.4209 37.1764 54.886 37.0823C59.916 36.0642 65.0851 37.623 68.7139 41.2517C72.3359 44.8739 73.8963 50.0347 72.8879 55.0567C72.8059 55.465 72.4472 55.7471 72.0463 55.7471Z" fill="#33836E"/>
</g>
<defs>
<clipPath id="clip0_12_551">
<rect width="40" height="40" fill="white" transform="translate(35 35)"/>
</clipPath>
</defs>
</svg>
