<svg width="52" height="52" viewBox="0 0 52 52" fill="none" xmlns="http://www.w3.org/2000/svg">
<rect width="52" height="52" rx="26" fill="#2F2B43" fill-opacity="0.04"/>
<path fill-rule="evenodd" clip-rule="evenodd" d="M26.0303 32.5303C26.3232 32.2374 26.3232 31.7626 26.0303 31.4697L21.3107 26.75L32 26.75C32.4142 26.75 32.75 26.4142 32.75 26C32.75 25.5858 32.4142 25.25 32 25.25L21.3107 25.25L26.0303 20.5303C26.3232 20.2374 26.3232 19.7626 26.0303 19.4697C25.7374 19.1768 25.2626 19.1768 24.9697 19.4697L18.9697 25.4697C18.6768 25.7626 18.6768 26.2374 18.9697 26.5303L24.9697 32.5303C25.2626 32.8232 25.7374 32.8232 26.0303 32.5303Z" fill="#2F2B43"/>
</svg>
