<svg width="4195" height="482" viewBox="0 0 4195 482" fill="none" xmlns="http://www.w3.org/2000/svg">
<path d="M1556.99 215.931H1451.56V23.6496C1451.66 18.8855 1450.85 15.4215 1449.24 13.4728C1447.52 11.5234 1444.49 10.549 1440.05 10.6574H1420.06C1415.61 10.549 1412.38 11.5234 1410.56 13.4728C1408.74 15.4215 1407.84 18.8855 1407.94 23.6496V458.881C1407.84 463.644 1408.74 467.109 1410.56 469.058C1412.38 471.006 1415.61 471.981 1420.06 471.872H1440.05C1444.49 471.981 1447.52 471.006 1449.24 469.058C1450.85 467.109 1451.66 463.644 1451.56 458.881V260.104H1556.99V318.567C1557.09 352.671 1563.35 381.795 1575.97 406.047C1588.6 430.19 1607.08 448.703 1631.51 461.479C1655.85 474.363 1685.74 480.859 1721.19 480.967C1756.23 480.859 1785.82 474.363 1810.05 461.479C1834.29 448.703 1852.67 430.19 1865.19 406.047C1877.81 381.795 1884.07 352.671 1884.17 318.567V163.963C1884.07 129.858 1877.81 100.735 1865.19 76.4838C1852.67 52.3404 1834.29 33.8264 1810.05 20.9425C1785.82 8.16697 1756.23 1.67157 1721.19 1.56323C1685.74 1.67157 1655.85 8.16697 1631.51 20.9425C1607.08 33.8264 1588.6 52.3404 1575.97 76.4838C1563.35 100.735 1557.09 129.858 1556.99 163.963V215.931ZM1840.55 318.567C1840.55 344.01 1835.9 365.446 1826.71 383.202C1817.52 400.85 1804.09 414.275 1786.32 423.477C1768.65 432.788 1746.94 437.336 1721.19 437.444C1695.33 437.336 1673.42 432.788 1655.65 423.477C1637.77 414.275 1624.24 400.85 1615.05 383.202C1605.86 365.446 1601.22 344.01 1601.22 318.567V163.963C1601.22 138.521 1605.86 116.975 1615.05 99.3279C1624.24 81.6799 1637.77 68.255 1655.65 58.9442C1673.42 49.7417 1695.33 45.0867 1721.19 45.0867C1746.94 45.0867 1768.65 49.7417 1786.32 58.9442C1804.09 68.255 1817.52 81.6799 1826.71 99.3279C1835.9 116.975 1840.55 138.521 1840.55 163.963V318.567ZM1978.09 10.6574C1973.64 10.549 1970.41 11.5234 1968.59 13.4728C1966.78 15.4215 1965.87 18.8855 1965.97 23.6496V458.881C1965.87 463.644 1966.78 467.109 1968.59 469.058C1970.41 471.006 1973.64 471.981 1978.09 471.872H1998.08C2002.52 471.981 2005.55 471.006 2007.27 469.058C2008.89 467.109 2009.69 463.644 2009.59 458.881V298.43H2139.86C2168.24 298.321 2192.68 292.583 2213.07 281.216C2233.47 269.955 2249.12 253.607 2260.13 232.17C2271.14 210.842 2276.69 185.075 2276.79 154.868C2276.69 124.662 2271.14 98.7862 2260.13 77.3491C2249.12 55.9128 2233.47 39.4565 2213.07 27.9804C2192.68 16.5042 2168.24 10.7657 2139.86 10.6574H1978.09ZM2009.59 254.906V54.8301H2136.23C2155.92 54.9385 2172.88 58.9442 2187.02 66.8473C2201.16 74.8594 2212.17 86.3356 2219.74 101.168C2227.41 116.109 2231.25 133.973 2231.35 154.868C2231.25 175.764 2227.41 193.628 2219.74 208.569C2212.17 223.401 2201.16 234.877 2187.02 242.781C2172.88 250.793 2155.92 254.798 2136.23 254.906H2009.59ZM2636.7 10.6574C2633.97 10.6574 2631.55 11.1991 2629.43 12.1734C2627.31 13.2561 2625.49 14.8798 2623.97 17.1535L2449.48 289.335C2435.24 311.746 2422.51 333.183 2411.1 353.537C2399.79 373.999 2389.79 393.271 2381.01 411.459H2379.19C2381.61 389.049 2383.43 366.205 2384.64 342.819C2385.86 319.542 2386.46 295.831 2386.46 271.796V23.6496C2386.56 18.8855 2385.76 15.4215 2384.14 13.4728C2382.42 11.5234 2379.39 10.549 2374.95 10.6574H2354.95C2350.51 10.549 2347.28 11.5234 2345.46 13.4728C2343.65 15.4215 2342.74 18.8855 2342.84 23.6496V458.881C2342.74 463.644 2343.65 467.109 2345.46 469.058C2347.28 471.006 2350.51 471.981 2354.95 471.872H2374.95C2377.68 471.872 2380.1 471.223 2382.22 470.032C2384.34 468.733 2386.16 467.001 2387.67 464.727L2566.41 186.049C2580.65 162.663 2593.17 141.335 2604.08 122.172C2614.88 103.009 2623.97 86.0113 2631.24 71.0704H2632.46C2629.73 94.1311 2627.81 116.65 2626.5 138.737C2625.19 160.823 2624.58 182.477 2624.58 203.589V458.881C2624.58 463.644 2625.39 467.109 2627.2 469.058C2629.12 471.006 2632.25 471.981 2636.7 471.872H2656.69C2661.13 471.981 2664.37 471.006 2666.18 469.058C2668 467.109 2668.91 463.644 2668.81 458.881V23.6496C2668.91 18.8855 2668 15.4215 2666.18 13.4728C2664.37 11.5234 2661.13 10.549 2656.69 10.6574H2636.7ZM2750.61 317.917C2750.71 352.021 2757.17 381.253 2770.1 405.505C2783.02 429.757 2801.8 448.379 2826.44 461.371C2851.08 474.254 2881.18 480.859 2916.62 480.967C2947.02 480.967 2972.97 476.744 2994.58 468.191C3016.09 459.747 3033.76 447.08 3047.5 430.298C3061.33 413.409 3071.83 392.404 3079 367.287C3080.21 363.39 3080.21 360.142 3079 357.435C3077.79 354.837 3075.37 352.671 3071.73 351.047L3052.95 343.252C3049.31 342.277 3046.18 342.494 3043.46 343.793C3040.83 345.201 3038.71 347.799 3037.2 351.696C3031.64 371.401 3023.87 387.533 3013.87 400.2C3003.87 412.867 2990.95 422.286 2975.09 428.35C2959.24 434.412 2939.75 437.444 2916.62 437.444C2890.47 437.336 2868.45 432.572 2850.28 423.261C2832.2 413.841 2818.47 400.308 2809.08 382.553C2799.58 364.905 2794.94 343.577 2794.84 318.567V163.963C2794.84 138.737 2799.48 117.3 2808.77 99.6522C2818.06 82.0049 2831.7 68.4717 2849.77 59.1609C2867.85 49.85 2890.16 45.0867 2916.62 45.0867C2939.34 44.9783 2958.53 48.0097 2974.18 53.9641C2989.94 59.9185 3002.76 69.121 3012.76 81.4639C3022.65 93.8061 3030.43 109.613 3035.98 128.884C3037.5 132.457 3039.52 134.839 3042.04 136.139C3044.57 137.437 3047.8 137.654 3051.74 136.679L3070.52 129.534C3074.96 128.019 3077.69 125.961 3078.7 123.471C3079.71 120.981 3079.41 117.408 3077.79 112.644C3070.62 87.7433 3060.12 67.0647 3046.39 50.6077C3032.65 34.1514 3015.08 21.9169 2993.67 13.7971C2972.26 5.56896 2946.61 1.56323 2916.62 1.56323C2880.77 1.67157 2850.58 8.16696 2825.94 21.1592C2801.3 34.1514 2782.52 52.7731 2769.79 77.0248C2757.07 101.277 2750.71 130.508 2750.61 164.612V317.917ZM3121.42 10.6574C3116.97 10.549 3113.74 11.5234 3111.92 13.4728C3110.11 15.4215 3109.2 18.8855 3109.3 23.6496V41.8386C3109.2 46.602 3110.11 49.9584 3111.92 52.0154C3113.74 53.9641 3116.97 54.8301 3121.42 54.8301H3243.81V458.881C3243.71 463.644 3244.61 467.109 3246.43 469.058C3248.25 471.006 3251.48 471.981 3255.92 471.872H3275.92C3280.36 471.981 3283.59 471.006 3285.41 469.058C3287.23 467.109 3288.14 463.644 3288.04 458.881V54.8301H3410.43C3414.87 54.8301 3418.1 53.9641 3419.92 52.0154C3421.74 49.9584 3422.65 46.602 3422.55 41.8386V23.6496C3422.65 18.8855 3421.74 15.4215 3419.92 13.4728C3418.1 11.5234 3414.87 10.549 3410.43 10.6574H3121.42ZM3464.96 317.917C3465.06 352.021 3471.52 381.253 3484.35 405.505C3497.17 429.757 3515.96 448.379 3540.7 461.371C3565.44 474.254 3595.73 480.859 3631.58 480.967C3667.23 480.859 3697.32 474.254 3722.06 461.371C3746.7 448.379 3765.48 429.757 3778.31 405.505C3791.03 381.253 3797.5 352.021 3797.6 317.917V164.612C3797.5 130.508 3791.03 101.277 3778.31 77.0248C3765.48 52.7731 3746.7 34.1514 3722.06 21.1592C3697.32 8.16696 3667.23 1.67157 3631.58 1.56323C3595.73 1.67157 3565.44 8.16696 3540.7 21.1592C3515.96 34.1514 3497.17 52.7731 3484.35 77.0248C3471.52 101.277 3465.06 130.508 3464.96 164.612V317.917ZM3753.97 317.917C3753.97 343.361 3749.23 364.905 3739.94 382.661C3730.54 400.417 3716.81 414.058 3698.63 423.369C3680.46 432.68 3658.04 437.336 3631.58 437.444C3605.12 437.336 3582.71 432.68 3564.43 423.369C3546.15 414.058 3532.32 400.417 3522.82 382.661C3513.33 364.905 3508.58 343.361 3508.58 317.917V164.612C3508.58 139.17 3513.33 117.625 3522.82 99.8696C3532.32 82.0049 3546.15 68.4717 3564.43 59.1609C3582.71 49.85 3605.12 45.0867 3631.58 45.0867C3658.04 45.0867 3680.46 49.85 3698.63 59.1609C3716.81 68.4717 3730.54 82.0049 3739.94 99.8696C3749.23 117.625 3753.97 139.17 3753.97 164.612V317.917ZM3891.51 10.6574C3887.07 10.549 3883.84 11.5234 3882.02 13.4728C3880.2 15.4215 3879.29 18.8855 3879.39 23.6496V458.881C3879.29 463.644 3880.2 467.109 3882.02 469.058C3883.84 471.006 3887.07 471.981 3891.51 471.872H4069.04C4094.79 471.764 4117.11 466.892 4135.79 457.148C4154.47 447.405 4168.91 433.33 4179.01 414.925C4189.21 396.411 4194.36 374.108 4194.46 347.799C4194.46 316.618 4188.4 291.609 4176.38 272.662C4164.27 253.824 4146.29 240.94 4122.36 234.12V232.82C4141.44 224.051 4155.68 210.95 4165.17 193.519C4174.57 176.089 4179.31 154.543 4179.31 128.884C4179.21 103.442 4174.67 82.0049 4165.58 64.4659C4156.49 46.927 4143.26 33.5021 4125.79 24.4073C4108.42 15.3131 4087.32 10.6574 4062.37 10.6574H3891.51ZM4134.48 134.731C4134.37 161.689 4127.81 181.935 4114.58 195.576C4101.35 209.11 4082.17 215.931 4056.92 215.931H3923.02V54.8301H4056.92C4082.67 54.8301 4102.06 61.4346 4114.99 74.7511C4128.01 88.0684 4134.48 108.098 4134.48 134.731ZM4127.81 406.263C4120.84 413.409 4112.26 418.822 4102.06 422.395C4091.86 425.968 4080.25 427.7 4067.22 427.7H3923.02V258.154H4067.22C4080.25 258.154 4091.86 259.887 4102.06 263.459C4112.26 267.032 4120.84 272.446 4127.81 279.591C4134.78 287.062 4139.93 296.048 4143.36 306.55C4146.8 317.052 4148.41 329.286 4148.41 343.252C4148.41 357.218 4146.8 369.452 4143.36 379.846C4139.93 390.348 4134.78 399.118 4127.81 406.263Z" fill="white"/>
<path fill-rule="evenodd" clip-rule="evenodd" d="M251.803 51.6853C237.625 20.8422 217.776 5.42211 192.256 3.77008C155.958 3.76863 119.663 3.76935 86.7691 3.7708C63.5186 31.3077 34.5951 67.6566 0 112.817C46.1702 112.472 96.2268 109.33 147.363 114.895C188.393 119.36 222.278 133.366 246.699 160.732C250.102 117.224 250.668 81.424 251.803 51.6853Z" fill="#115B82"/>
<path fill-rule="evenodd" clip-rule="evenodd" d="M251.803 51.6853C237.625 20.8422 217.776 5.42211 192.256 3.77008C155.958 3.76863 119.663 3.76935 86.7691 3.7708C63.5186 31.3077 34.5951 67.6566 0 112.817C46.1702 112.472 96.2268 109.33 147.363 114.895C188.393 119.36 222.278 133.366 246.699 160.732C250.102 117.224 250.668 81.424 251.803 51.6853Z" fill="#115B82"/>
<path fill-rule="evenodd" clip-rule="evenodd" d="M105.318 133.888V479H246.254V192.739C209.3 148.316 161.18 136.206 105.318 133.888Z" fill="#115B82"/>
<path fill-rule="evenodd" clip-rule="evenodd" d="M105.318 133.888V479H246.254V192.739C209.3 148.316 161.18 136.206 105.318 133.888Z" fill="#115B82"/>
<path fill-rule="evenodd" clip-rule="evenodd" d="M577.933 474.332C514.467 479.667 443.051 487.427 383.784 458.396C350.302 441.996 323.704 418.803 304.305 388.818C263.424 325.625 256.57 181.629 299.651 103.259C310.877 82.8346 326.737 67.2306 345.429 53.613C391.975 19.6847 454.583 1.81126 533.25 0C449.718 66.2751 414.198 115.131 408 189.296C404.575 230.301 401.868 308.302 436.448 336.229C445.295 343.372 455.537 349.437 467.129 353.515C525.329 373.986 618.712 362.969 672.456 357.469C637.515 415.898 601.421 456.002 577.933 474.332Z" fill="#115B82"/>
<path fill-rule="evenodd" clip-rule="evenodd" d="M577.933 474.332C514.467 479.667 443.051 487.427 383.784 458.396C350.302 441.996 323.704 418.803 304.305 388.818C263.424 325.625 256.57 181.629 299.651 103.259C310.877 82.8346 326.737 67.2306 345.429 53.613C391.975 19.6847 454.583 1.81126 533.25 0C449.718 66.2751 414.198 115.131 408 189.296C404.575 230.301 401.868 308.302 436.448 336.229C445.295 343.372 455.537 349.437 467.129 353.515C525.329 373.986 618.712 362.969 672.456 357.469C637.515 415.898 601.421 456.002 577.933 474.332Z" fill="#115B82"/>
<path fill-rule="evenodd" clip-rule="evenodd" d="M1021.73 7.66781C1085.19 2.3329 1156.61 -5.42768 1215.88 23.6042C1249.36 40.0044 1275.96 63.1975 1295.35 93.1826C1336.24 156.375 1343.09 300.371 1300.01 378.741C1288.78 399.166 1272.92 414.77 1254.23 428.387C1207.68 462.316 1145.08 480.189 1066.41 482C1149.94 415.725 1185.46 366.869 1191.66 292.705C1195.09 251.698 1197.79 173.698 1163.21 145.771C1154.36 138.628 1144.12 132.563 1132.53 128.485C1074.33 108.014 980.948 119.031 927.204 124.531C962.146 66.1024 998.239 25.9986 1021.73 7.66781Z" fill="#115B82"/>
<path fill-rule="evenodd" clip-rule="evenodd" d="M1021.73 7.66781C1085.19 2.3329 1156.61 -5.42768 1215.88 23.6042C1249.36 40.0044 1275.96 63.1975 1295.35 93.1826C1336.24 156.375 1343.09 300.371 1300.01 378.741C1288.78 399.166 1272.92 414.77 1254.23 428.387C1207.68 462.316 1145.08 480.189 1066.41 482C1149.94 415.725 1185.46 366.869 1191.66 292.705C1195.09 251.698 1197.79 173.698 1163.21 145.771C1154.36 138.628 1144.12 132.563 1132.53 128.485C1074.33 108.014 980.948 119.031 927.204 124.531C962.146 66.1024 998.239 25.9986 1021.73 7.66781Z" fill="#115B82"/>
<path fill-rule="evenodd" clip-rule="evenodd" d="M607.149 477.772C673.893 422.052 715.722 360.372 725.623 278.563C728.548 254.418 728.151 229.993 730.472 205.77C735.006 158.472 746.607 110.82 782.246 74.7841C825.664 30.876 890.469 8.80638 986.96 1.71838C907.36 73.0826 878.186 131.351 866.591 221.862C863.776 243.857 863.246 266.155 859.634 288.025C839.334 411.007 738.301 483.11 607.149 477.772Z" fill="#115B82"/>
<path fill-rule="evenodd" clip-rule="evenodd" d="M607.149 477.772C673.893 422.052 715.722 360.372 725.623 278.563C728.548 254.418 728.151 229.993 730.472 205.77C735.006 158.472 746.607 110.82 782.246 74.7841C825.664 30.876 890.469 8.80638 986.96 1.71838C907.36 73.0826 878.186 131.351 866.591 221.862C863.776 243.857 863.246 266.155 859.634 288.025C839.334 411.007 738.301 483.11 607.149 477.772Z" fill="#115B82"/>
<path fill-rule="evenodd" clip-rule="evenodd" d="M705.559 156.897C684.458 139.89 665.909 131.605 645.795 126.535C588.318 112.043 520.824 120.468 458.869 122.386C493.38 61.4591 529.169 23.1136 564.958 3.51468C594.816 2.47562 622.933 2.5447 649.599 4.01058C680.519 5.70987 705.618 9.22333 734.29 21.0667C752.989 28.7909 764.715 36.148 769.468 43.1386C734.105 76.7971 712.802 115.143 705.559 156.897Z" fill="#115B82"/>
<path fill-rule="evenodd" clip-rule="evenodd" d="M705.559 156.897C684.458 139.89 665.909 131.605 645.795 126.535C588.318 112.043 520.824 120.468 458.869 122.386C493.38 61.4591 529.169 23.1136 564.958 3.51468C594.816 2.47562 622.933 2.5447 649.599 4.01058C680.519 5.70987 705.618 9.22333 734.29 21.0667C752.989 28.7909 764.715 36.148 769.468 43.1386C734.105 76.7971 712.802 115.143 705.559 156.897Z" fill="#115B82"/>
<path fill-rule="evenodd" clip-rule="evenodd" d="M878.311 325.103C899.978 342.109 919.022 350.394 939.675 355.465C998.692 369.957 1067.99 361.532 1131.61 359.614C1096.17 420.541 1059.42 458.886 1022.68 478.485C992.02 479.524 963.149 479.454 935.769 477.989C904.021 476.29 878.25 472.776 848.81 460.932C829.611 453.209 817.571 445.852 812.69 438.861C849 405.203 870.874 366.856 878.311 325.103Z" fill="#115B82"/>
<path fill-rule="evenodd" clip-rule="evenodd" d="M878.311 325.103C899.978 342.109 919.022 350.394 939.675 355.465C998.692 369.957 1067.99 361.532 1131.61 359.614C1096.17 420.541 1059.42 458.886 1022.68 478.485C992.02 479.524 963.149 479.454 935.769 477.989C904.021 476.29 878.25 472.776 848.81 460.932C829.611 453.209 817.571 445.852 812.69 438.861C849 405.203 870.874 366.856 878.311 325.103Z" fill="#115B82"/>
</svg>
